<svg width="24" height="24" viewBox="0 0 24 24" fill="none" xmlns="http://www.w3.org/2000/svg">
<rect width="24" height="24" rx="8" fill="#DADBEA"/>
<path d="M8.49949 12.7744C8.87849 12.4879 9.35004 12.338 9.9684 12.2777C10.2245 12.2528 10.4199 12.0375 10.4199 11.7801V10.812C10.4199 10.6745 10.3633 10.543 10.2633 10.4486C10.1634 10.3541 10.0289 10.305 9.89161 10.3128C9.0969 10.3579 8.41277 10.5332 7.83387 10.8301C7.06638 11.2238 6.46212 11.8419 6.02225 12.7001C5.36549 13.9814 5.3085 15.6791 5.96339 17.0477C6.60815 18.395 7.95361 19.4464 10.1721 19.4464C11.2873 19.4464 12.1113 19.1777 12.7245 18.7834C13.3391 18.3882 13.7602 17.8549 14.0494 17.2989C14.6325 16.1778 14.6656 14.9912 14.6656 14.7726L14.6656 9.48507C14.6656 9.37117 14.7276 9.26629 14.8273 9.21137C14.9271 9.15645 15.0489 9.1602 15.1451 9.22115C16.1306 9.84536 16.9338 10.2024 17.5626 10.3207L8.49949 12.7744ZM8.49949 12.7744C7.65778 13.4107 7.45277 14.2749 7.45277 14.867M8.49949 12.7744L7.45277 14.867M14.7852 5.19318L14.785 5.19317L14.7849 5.20263C14.7849 5.97325 15.1891 6.59989 15.6518 7.05971C16.1152 7.52009 16.6659 7.84324 17.0356 8.01506L14.7852 5.19318ZM14.7852 5.19318L14.7852 5.1808M14.7852 5.19318L14.7852 5.1808M14.7852 5.1808L14.7854 5.14282L14.7854 5.14097M14.7852 5.1808L14.7854 5.14097M14.7854 5.14097L14.7855 5.00046C14.7856 4.86777 14.733 4.74048 14.6392 4.64661M14.7854 5.14097L14.6392 4.64661M14.6392 4.64661C14.5455 4.55274 14.4182 4.5 14.2855 4.5M14.6392 4.64661L14.2855 4.5M14.2855 4.5H13.0172C12.7413 4.5 12.5176 4.72347 12.5172 4.99937M14.2855 4.5L12.5172 4.99937M12.5172 4.99937C12.5097 10.9113 12.5101 14.1661 12.5182 14.7683L12.5182 14.7683M12.5172 4.99937L12.5182 14.7683M12.5182 14.7683C12.5257 15.3165 12.3197 15.9566 11.9047 16.4633M12.5182 14.7683L11.9047 16.4633M11.9047 16.4633C11.4828 16.9783 10.8405 17.3594 9.992 17.3594M11.9047 16.4633L9.992 17.3594M9.992 17.3594C9.14397 17.3594 8.50332 16.9792 8.08074 16.4792M9.992 17.3594L8.08074 16.4792M8.08074 16.4792C7.66565 15.988 7.45277 15.3725 7.45277 14.867M8.08074 16.4792L7.45277 14.867M18.1067 8.36732C17.7156 8.28189 17.3582 8.16494 17.0356 8.01507L17.5626 10.3207C17.6895 10.3446 17.8069 10.3659 17.9149 10.3845C18.0603 10.4096 18.2093 10.3693 18.3221 10.2743C18.4349 10.1793 18.5 10.0393 18.5 9.89181V8.8558C18.5 8.62078 18.3363 8.41748 18.1067 8.36732Z" stroke="#424895" stroke-linecap="round" stroke-linejoin="round"/>
</svg>
