<svg width="24" height="24" viewBox="0 0 24 24" fill="none" xmlns="http://www.w3.org/2000/svg">
<g clip-path="url(#clip0_1447_4807)">
<path d="M14.5578 10.2472C14.4826 10.2472 14.4103 10.2183 14.3558 10.1664C14.3013 10.1146 14.2688 10.0438 14.265 9.96867C14.2153 8.97274 13.746 8.48504 12.7884 8.43352C12.7121 8.42745 12.6412 8.39181 12.5908 8.3342C12.5404 8.27659 12.5145 8.20157 12.5186 8.12514C12.5227 8.04872 12.5566 7.97692 12.6129 7.92509C12.6692 7.87325 12.7435 7.84546 12.8201 7.84765C14.0837 7.91728 14.7862 8.6389 14.8509 9.93943C14.8528 9.97792 14.8472 10.0164 14.8342 10.0527C14.8212 10.089 14.8013 10.1224 14.7754 10.151C14.7495 10.1796 14.7183 10.2028 14.6835 10.2193C14.6487 10.2358 14.6109 10.2452 14.5724 10.2472H14.5578Z" fill="#282B59"/>
<path d="M16.0567 10.7519H16.0637C16.1405 10.7518 16.2141 10.7215 16.2689 10.6677C16.3237 10.6139 16.3552 10.5408 16.3568 10.464C16.3825 9.31841 16.032 8.34302 15.3271 7.57196C14.6222 6.8009 13.6307 6.36333 12.38 6.27178C12.3023 6.2661 12.2254 6.29154 12.1665 6.34249C12.1075 6.39344 12.0712 6.46574 12.0655 6.54348C12.0598 6.62121 12.0852 6.69802 12.1362 6.757C12.1871 6.81599 12.2594 6.85231 12.3372 6.85799C13.4487 6.93945 14.2824 7.30148 14.8944 7.96915C15.5063 8.63682 15.7928 9.44895 15.7702 10.4519C15.7684 10.5296 15.7976 10.6049 15.8513 10.6612C15.9051 10.7175 15.9789 10.7501 16.0567 10.7519Z" fill="#282B59"/>
<path d="M17.6047 11.3541C17.5273 11.354 17.453 11.3234 17.3981 11.2688C17.3431 11.2143 17.3119 11.1402 17.3113 11.0628C17.2977 9.26897 16.7811 7.89882 15.7319 6.87469C14.6953 5.86518 13.3857 5.3472 11.839 5.33606C11.8005 5.33592 11.7624 5.32819 11.7268 5.31332C11.6913 5.29844 11.659 5.27671 11.6318 5.24937C11.577 5.19414 11.5464 5.11939 11.5466 5.04156C11.5469 4.96373 11.5781 4.8892 11.6333 4.83436C11.6886 4.77952 11.7633 4.74887 11.8411 4.74915H11.8436C13.5465 4.76168 14.9925 5.33536 16.1417 6.45487C17.2908 7.57439 17.8832 9.12625 17.8986 11.0593C17.8991 11.1371 17.8688 11.2119 17.8142 11.2673C17.7596 11.3227 17.6853 11.3542 17.6075 11.3548L17.6047 11.3541Z" fill="#282B59"/>
<path d="M13.4968 13.6454C13.2747 13.919 12.8622 13.8842 12.8622 13.8842C9.8472 13.1145 9.04029 10.0606 9.04029 10.0606C9.04029 10.0606 9.00409 9.64807 9.27909 9.42597L9.82388 8.99293C10.094 8.78476 10.2663 8.27966 9.99132 7.78639C9.78039 7.41613 9.55104 7.05666 9.30416 6.70934C9.06431 6.38177 8.5056 5.71097 8.50351 5.70888C8.23407 5.39106 7.83793 5.31726 7.4202 5.53483C7.41893 5.53483 7.4172 5.53539 7.41553 5.53593C7.41399 5.53644 7.4125 5.53692 7.41149 5.53692C6.99602 5.7763 6.6214 6.08042 6.30173 6.43782C6.30064 6.44 6.29955 6.44104 6.29846 6.44208C6.29746 6.44304 6.29646 6.44399 6.29546 6.44583C6.0374 6.75727 5.88968 7.06256 5.85232 7.3617C5.84456 7.4058 5.84188 7.45065 5.84432 7.49537C5.84293 7.62747 5.86303 7.75891 5.90384 7.88455L5.91811 7.8943C6.04831 8.35659 6.37413 9.1266 7.08218 10.4104C7.48718 11.153 7.95426 11.86 8.47844 12.5238C8.74107 12.8565 9.02257 13.174 9.32156 13.4745C9.32516 13.4781 9.32872 13.4817 9.33227 13.4853C9.33936 13.4924 9.3464 13.4995 9.35359 13.5065L9.44966 13.6026C9.75017 13.9016 10.0676 14.1831 10.4003 14.4457C11.0642 14.9699 11.7713 15.437 12.5141 15.8419C13.7975 16.55 14.5682 16.8758 15.0298 17.006L15.0396 17.0203C15.1652 17.0612 15.2966 17.0814 15.4288 17.0802C15.4735 17.0823 15.5183 17.0795 15.5624 17.0718C15.862 17.0363 16.1671 16.8888 16.4776 16.6294C16.4794 16.6284 16.4804 16.6274 16.4813 16.6264C16.4824 16.6253 16.4834 16.6242 16.4856 16.6231C16.843 16.3033 17.1472 15.9287 17.3869 15.5133C17.3869 15.5123 17.3873 15.5108 17.3877 15.5093C17.3881 15.5076 17.3886 15.5059 17.3886 15.5046C17.6062 15.0869 17.5324 14.6908 17.2128 14.421C17.2124 14.421 17.1863 14.3995 17.1422 14.3631C16.9611 14.2139 16.4758 13.814 16.2123 13.6203C15.8654 13.3735 15.5063 13.1441 15.1363 12.9332C14.6427 12.6582 14.1387 12.8305 13.9298 13.1006L13.4968 13.6454Z" fill="#282B59"/>
<path fill-rule="evenodd" clip-rule="evenodd" d="M20.5167 2.8603C19.9402 2.32839 17.6107 0.637282 12.4218 0.614307C12.4218 0.614307 6.30276 0.245313 3.31983 2.98144C1.65936 4.64226 1.07523 7.0724 1.01362 10.0853C0.952003 13.0981 0.872286 18.7444 6.31495 20.2754H6.32017L6.31669 22.6116C6.31669 22.6116 6.28188 23.5574 6.90464 23.7502C7.53332 23.9454 7.94524 23.4771 8.48237 22.8664C8.58885 22.7453 8.70025 22.6186 8.81923 22.4904C9.21399 22.065 9.75912 21.4402 10.1699 20.9626C13.8922 21.2759 16.755 20.5598 17.0802 20.454C17.1473 20.4322 17.2423 20.4081 17.3602 20.3781C18.5628 20.0723 22.1463 19.1611 22.7763 14.0196C23.4902 8.20026 22.4309 4.51938 20.5167 2.8603ZM21.1475 13.6022C20.6218 17.8468 17.7729 18.5097 16.7464 18.7485C16.6329 18.7749 16.5416 18.7962 16.4783 18.8165C16.2078 18.9035 13.6934 19.5291 10.5316 19.3226C10.5316 19.3226 8.17558 22.1649 7.43968 22.904C7.32481 23.0195 7.18974 23.0662 7.09958 23.0432C6.97287 23.0122 6.93806 22.8622 6.93945 22.6429C6.94154 22.3296 6.95964 18.7608 6.95964 18.7608C2.50771 17.5248 2.61155 12.9907 2.67048 10.4172C2.67249 10.3293 2.67445 10.2436 2.67618 10.1605C2.7284 7.64399 3.20113 5.5825 4.60539 4.19598C7.12847 1.91066 12.3261 2.25215 12.3261 2.25215C16.7154 2.2713 18.8186 3.59306 19.3063 4.03585C20.9257 5.42237 21.7507 8.74018 21.1475 13.6008V13.6022Z" fill="#282B59"/>
</g>
<defs>
<clipPath id="clip0_1447_4807">
<rect width="24" height="24" fill="white" transform="translate(0 0.000732422)"/>
</clipPath>
</defs>
</svg>
