<svg width="24" height="24" viewBox="0 0 24 24" fill="none" xmlns="http://www.w3.org/2000/svg">
<path d="M0 24.0007L1.687 17.8377C0.646 16.0337 0.099 13.9887 0.1 11.8917C0.103 5.33573 5.438 0.000732422 11.993 0.000732422C15.174 0.00173242 18.16 1.24073 20.406 3.48873C22.651 5.73673 23.887 8.72473 23.886 11.9027C23.883 18.4597 18.548 23.7947 11.993 23.7947C10.003 23.7937 8.042 23.2947 6.305 22.3467L0 24.0007ZM6.597 20.1937C8.273 21.1887 9.873 21.7847 11.989 21.7857C17.437 21.7857 21.875 17.3517 21.878 11.9007C21.88 6.43873 17.463 2.01073 11.997 2.00873C6.545 2.00873 2.11 6.44273 2.108 11.8927C2.107 14.1177 2.759 15.7837 3.854 17.5267L2.855 21.1747L6.597 20.1937ZM17.984 14.7297C17.91 14.6057 17.712 14.5317 17.414 14.3827C17.117 14.2337 15.656 13.5147 15.383 13.4157C15.111 13.3167 14.913 13.2667 14.714 13.5647C14.516 13.8617 13.946 14.5317 13.773 14.7297C13.6 14.9277 13.426 14.9527 13.129 14.8037C12.832 14.6547 11.874 14.3417 10.739 13.3287C9.856 12.5407 9.259 11.5677 9.086 11.2697C8.913 10.9727 9.068 10.8117 9.216 10.6637C9.35 10.5307 9.513 10.3167 9.662 10.1427C9.813 9.97073 9.862 9.84673 9.962 9.64773C10.061 9.44973 10.012 9.27573 9.937 9.12673C9.862 8.97873 9.268 7.51573 9.021 6.92073C8.779 6.34173 8.534 6.41973 8.352 6.41073L7.782 6.40073C7.584 6.40073 7.262 6.47473 6.99 6.77273C6.718 7.07073 5.95 7.78873 5.95 9.25173C5.95 10.7147 7.015 12.1277 7.163 12.3257C7.312 12.5237 9.258 15.5257 12.239 16.8127C12.948 17.1187 13.502 17.3017 13.933 17.4387C14.645 17.6647 15.293 17.6327 15.805 17.5567C16.376 17.4717 17.563 16.8377 17.811 16.1437C18.059 15.4487 18.059 14.8537 17.984 14.7297Z" fill="#282B59"/>
</svg>
