<svg width="16" height="18" viewBox="0 0 16 18" fill="none" xmlns="http://www.w3.org/2000/svg">
<path fill-rule="evenodd" clip-rule="evenodd" d="M9.9818 3.12163L15.7968 12.9334C15.9248 13.2263 15.9808 13.4644 15.9968 13.7118C16.0288 14.2898 15.8208 14.8517 15.4129 15.284C15.005 15.7148 14.453 15.9692 13.8531 16H2.14312C1.89516 15.9854 1.64721 15.9306 1.41525 15.8459C0.255441 15.3911 -0.304464 14.1118 0.167456 13.0028L6.02247 3.11469C6.22244 2.76711 6.52638 2.4673 6.90232 2.27463C7.99014 1.68813 9.37391 2.07348 9.9818 3.12163ZM8.69393 9.5878C8.69393 9.95773 8.38198 10.2668 7.99805 10.2668C7.61411 10.2668 7.29417 9.95773 7.29417 9.5878V7.40749C7.29417 7.03679 7.61411 6.73698 7.99805 6.73698C8.38198 6.73698 8.69393 7.03679 8.69393 7.40749V9.5878ZM7.99805 12.9026C7.61411 12.9026 7.29417 12.5935 7.29417 12.2244C7.29417 11.8537 7.61411 11.5454 7.99805 11.5454C8.38198 11.5454 8.69393 11.8467 8.69393 12.2159C8.69393 12.5935 8.38198 12.9026 7.99805 12.9026Z" fill="#E50074"/>
</svg>
