<svg width="18" height="24" viewBox="0 0 18 24" fill="none" xmlns="http://www.w3.org/2000/svg">
<path d="M1.5 10.0263V18.5C1.5 19.0523 1.94772 19.5 2.5 19.5H15.5C16.0523 19.5 16.5 19.0523 16.5 18.5V10.0263M1.5 10.0263V7.07895C1.5 6.52666 1.94772 6.07895 2.5 6.07895H5.84211M1.5 10.0263H16.5M16.5 10.0263V7.07895C16.5 6.52666 16.0523 6.07895 15.5 6.07895H12.1579M5.84211 4.5V6.07895M5.84211 6.07895V7.65789M5.84211 6.07895H12.1579M12.1579 4.5V6.07895M12.1579 6.07895V7.65789" stroke="#424895" stroke-width="1.25" stroke-linecap="round" stroke-linejoin="round"/>
<path d="M9 13.5L13 13.5" stroke="#424895" stroke-width="1.25" stroke-linecap="round"/>
<path d="M5 16.5H13" stroke="#424895" stroke-width="1.25" stroke-linecap="round"/>
</svg>
