<svg width="186" height="40" viewBox="0 0 186 40" fill="none" xmlns="http://www.w3.org/2000/svg">
<path d="M19.5246 18.4985C18.0702 13.7488 20.7464 8.72064 25.5026 7.26626C29.0436 6.18529 32.7385 7.39401 34.9955 10.044C34.9234 9.72627 34.8546 9.40853 34.7563 9.09407C32.6796 2.3102 25.4863 -1.50921 18.6959 0.56428C11.9022 2.64104 8.07948 9.82454 10.1562 16.6084C12.233 23.3923 19.423 27.2149 26.2167 25.1415C26.5345 25.0432 26.8358 24.9253 27.1372 24.8073C23.6781 24.4208 20.6056 22.0362 19.5246 18.4985Z" fill="#424895"/>
<path d="M29.1193 17.4175C25.8109 15.9795 22.2044 16.1826 19.2007 17.6599C20.2292 17.6861 21.2709 17.9023 22.2699 18.338C26.4497 20.1559 28.3626 25.0137 26.5447 29.1869C24.7267 33.3633 19.8624 35.273 15.6826 33.4583C14.7196 33.039 13.881 32.4527 13.1768 31.7583C14.1693 34.8931 16.4524 37.602 19.7084 39.0171C25.6799 41.6114 32.6243 38.8795 35.2251 32.9178C37.826 26.9529 35.0908 20.0118 29.1193 17.4175Z" fill="#96C121"/>
<path d="M16.2884 13.9945C17.5987 14.9739 18.5945 16.2154 19.2791 17.5846C19.0236 15.7765 18.0736 14.0666 16.4981 12.8841C14.4279 11.3347 11.791 11.0857 9.55371 11.9865C11.8827 11.8424 14.2739 12.4877 16.2884 13.9945Z" fill="#E50074"/>
<path d="M19.279 17.5847C19.5345 19.3863 19.1053 21.2829 17.9261 22.8552C15.5644 26.0031 11.0964 26.6418 7.94852 24.2834C4.79735 21.9249 4.1586 17.4635 6.52034 14.3156C7.32942 13.2379 8.39073 12.4616 9.55686 11.9899C6.68084 12.17 3.89983 13.5524 2.03599 16.0353C-1.33792 20.5295 -0.424018 26.9072 4.07671 30.2745C8.57744 33.6452 14.9584 32.7313 18.3323 28.2338C20.7202 25.0466 20.9463 20.9193 19.279 17.5847Z" fill="#E50074"/>
<path d="M13.6027 23.5201C14.7623 20.8602 16.7866 18.8523 19.2008 17.6632C15.9349 17.578 12.7936 19.4386 11.4113 22.6127C10.0126 25.8261 10.8282 29.4359 13.1801 31.7616C12.3547 29.1443 12.4235 26.2323 13.6027 23.5201Z" fill="#96C121"/>
<path d="M36.7452 13.2411C36.375 12.0291 35.769 10.9547 34.996 10.0474C36.3881 16.2252 33.0437 22.5046 27.1377 24.8074C28.3235 24.9385 29.5518 24.8402 30.7671 24.47C35.5233 23.0189 38.1996 17.9908 36.7452 13.2411Z" fill="#424895"/>
<path d="M42.8535 12.5959H48.2125V13.7588H44.3701V16.1795H47.4951V17.2539H44.3701V20.0317H48.2125V21.1978H42.8535V12.5959Z" fill="#07070F"/>
<path d="M50.8885 15.1051V19.1374C50.8885 19.7827 51.3897 20.2118 52.1398 20.2118C53.2731 20.2118 54.1936 19.049 54.1936 17.6143V15.1051H55.6218V21.2011H54.282L54.2034 19.7729C53.7186 20.6901 52.9358 21.2895 52.0481 21.2895C50.4921 21.2895 49.457 20.5361 49.457 19.406V15.1051H50.8885Z" fill="#07070F"/>
<path d="M58.7473 15.105L58.8227 16.4808C59.3304 15.5964 60.1657 15.0166 61.1058 15.0166H61.6954V16.5398H60.7127C59.5859 16.5398 58.8358 17.2211 58.8358 18.2431V21.201H57.4043V15.105H58.7473Z" fill="#07070F"/>
<path d="M65.622 15.0133C67.499 15.0133 68.747 16.2679 68.747 18.1514C68.747 20.0349 67.4957 21.2895 65.622 21.2895C63.7451 21.2895 62.4971 20.0349 62.4971 18.1514C62.4971 16.2679 63.7484 15.0133 65.622 15.0133ZM65.622 20.2118C66.608 20.2118 67.2664 19.3863 67.2664 18.1514C67.2664 16.9165 66.608 16.091 65.622 16.091C64.6361 16.091 63.9777 16.9165 63.9777 18.1514C63.9777 19.3863 64.6361 20.2118 65.622 20.2118Z" fill="#07070F"/>
<path d="M71.3356 15.1051L71.5125 16.1042L72.2331 15.1051H73.5204C75.1582 15.1051 76.2556 16.3236 76.2556 18.1515C76.2556 20.035 75.1615 21.2895 73.5204 21.2895C72.7081 21.2895 71.9841 20.7884 71.519 20.012V24.7846H70.0908V15.1051H71.3356ZM71.5157 17.9713C71.5157 19.2095 72.2855 20.2118 73.2322 20.2118C74.1526 20.2118 74.7684 19.3864 74.7684 18.1515C74.7684 16.9689 74.1526 16.1795 73.2322 16.1795H71.5157V17.9713Z" fill="#07070F"/>
<path d="M80.4477 20.2119C81.0537 20.2119 81.6499 20.0874 82.1445 19.7336V21.0603C81.5811 21.224 81.0341 21.2863 80.4477 21.2863C78.4627 21.2863 77.1426 20.0317 77.1426 18.1482C77.1426 16.2647 78.3578 15.0101 80.1791 15.0101C81.8399 15.0101 82.947 16.0649 82.947 17.6438V18.0565C82.947 18.407 82.7505 18.5937 82.4131 18.5937H78.6002C78.7313 19.6517 79.37 20.2119 80.4477 20.2119ZM79.2849 17.6143H81.6957C81.6957 16.5661 81.1651 15.9994 80.1758 15.9994C79.1309 15.9994 78.5675 16.7528 78.5675 18.1515C78.5675 18.2334 78.5708 18.3153 78.574 18.3939L79.2849 17.6143Z" fill="#07070F"/>
<path d="M86.6059 15.1051H87.8932L88.6073 16.1075L88.7875 15.1051H90.0388V19.5502C90.0388 20.2675 90.0912 21.2338 90.0912 21.2338L88.7875 21.1618L88.7187 19.8548C88.2634 20.7196 87.4871 21.2895 86.6092 21.2895C84.9681 21.2895 83.874 20.035 83.874 18.1515C83.874 16.3236 84.9648 15.1051 86.6059 15.1051ZM86.8909 20.2118C87.8375 20.2118 88.6073 19.2455 88.6073 18.0597V16.1762H86.8909C85.9672 16.1762 85.3546 16.9657 85.3546 18.1482C85.3546 19.3897 85.9704 20.2118 86.8909 20.2118Z" fill="#07070F"/>
<path d="M91.8213 15.105H93.161L93.2396 16.5332C93.7244 15.6128 94.5073 15.0166 95.395 15.0166C96.9509 15.0166 97.986 15.77 97.986 16.9001V21.201H96.5579V17.1654C96.5579 16.5201 96.0567 16.091 95.3066 16.091C94.1732 16.091 93.2527 17.2571 93.2527 18.6919V21.201H91.8213V15.105Z" fill="#07070F"/>
<path d="M106.736 21.2894C104.217 21.2894 102.536 19.5337 102.536 16.8968C102.536 14.2632 104.217 12.5042 106.736 12.5042C107.351 12.5042 108.01 12.6057 108.521 12.7302V14.2697C108.092 13.9651 107.597 13.7554 106.912 13.7554C105.252 13.7554 104.141 15.01 104.141 16.8935C104.141 18.777 105.176 20.0316 106.732 20.0316C107.417 20.0316 108.088 19.8219 108.517 19.5173V21.0569C108.01 21.1846 107.351 21.2894 106.736 21.2894Z" fill="#07070F"/>
<path d="M112.717 15.0133C114.594 15.0133 115.842 16.2679 115.842 18.1514C115.842 20.0349 114.59 21.2895 112.717 21.2895C110.84 21.2895 109.592 20.0349 109.592 18.1514C109.592 16.2679 110.84 15.0133 112.717 15.0133ZM112.717 20.2118C113.703 20.2118 114.361 19.3863 114.361 18.1514C114.361 16.9165 113.703 16.091 112.717 16.091C111.731 16.091 111.072 16.9165 111.072 18.1514C111.072 19.3863 111.731 20.2118 112.717 20.2118Z" fill="#07070F"/>
<path d="M117.178 15.105H118.517L118.596 16.5332C119.081 15.6128 119.867 15.0166 120.751 15.0166C122.307 15.0166 123.342 15.77 123.342 16.9001V21.201H121.911V17.1654C121.911 16.5201 121.41 16.091 120.66 16.091C119.526 16.091 118.606 17.2571 118.606 18.6919V21.201H117.178V15.105Z" fill="#07070F"/>
<path d="M125.036 13.8505C125.036 12.2782 125.868 11.4298 127.411 11.4298C127.985 11.4298 128.41 11.4855 128.967 11.6231V12.894C128.473 12.5435 128.021 12.4158 127.411 12.4158C126.796 12.4158 126.465 12.917 126.465 13.8505V15.1051H128.607V16.0911H126.465V21.2011H125.033V13.8505H125.036Z" fill="#07070F"/>
<path d="M132.717 20.2119C133.323 20.2119 133.919 20.0874 134.414 19.7336V21.0603C133.851 21.224 133.304 21.2863 132.717 21.2863C130.732 21.2863 129.412 20.0317 129.412 18.1482C129.412 16.2647 130.627 15.0101 132.449 15.0101C134.109 15.0101 135.217 16.0649 135.217 17.6438V18.0565C135.217 18.407 135.02 18.5937 134.683 18.5937H130.87C131.004 19.6517 131.643 20.2119 132.717 20.2119ZM131.554 17.6143H133.965C133.965 16.5661 133.435 15.9994 132.445 15.9994C131.4 15.9994 130.837 16.7528 130.837 18.1515C130.837 18.2334 130.84 18.3153 130.844 18.3939L131.554 17.6143Z" fill="#07070F"/>
<path d="M138.879 15.105H140.13L140.88 16.1336V11.5182H142.308V19.5501C142.308 20.2674 142.361 21.2338 142.361 21.2338L141.057 21.1617L140.985 19.8187C140.53 20.7031 139.757 21.2894 138.879 21.2894C137.238 21.2894 136.144 20.0349 136.144 18.1514C136.144 16.3236 137.238 15.105 138.879 15.105ZM139.164 20.2118C140.11 20.2118 140.88 19.2094 140.88 17.9712V16.1794H139.164C138.24 16.1794 137.627 16.9689 137.627 18.1514C137.627 19.3896 138.24 20.2118 139.164 20.2118Z" fill="#07070F"/>
<path d="M146.95 20.2119C147.556 20.2119 148.152 20.0874 148.646 19.7336V21.0603C148.083 21.224 147.536 21.2863 146.95 21.2863C144.965 21.2863 143.645 20.0317 143.645 18.1482C143.645 16.2647 144.86 15.0101 146.681 15.0101C148.342 15.0101 149.449 16.0649 149.449 17.6438V18.0565C149.449 18.407 149.252 18.5937 148.915 18.5937H145.102C145.236 19.6517 145.875 20.2119 146.95 20.2119ZM145.787 17.6143H148.198C148.198 16.5661 147.667 15.9994 146.678 15.9994C145.633 15.9994 145.069 16.7528 145.069 18.1515C145.069 18.2334 145.073 18.3153 145.076 18.3939L145.787 17.6143Z" fill="#07070F"/>
<path d="M152.162 15.105L152.24 16.4808C152.748 15.5964 153.583 15.0166 154.523 15.0166H155.113V16.5398H154.13C153.003 16.5398 152.253 17.2211 152.253 18.2431V21.201H150.825V15.105H152.162Z" fill="#07070F"/>
<path d="M158.647 15.1051H159.934L160.648 16.1075L160.829 15.1051H162.08V19.5502C162.08 20.2675 162.132 21.2338 162.132 21.2338L160.829 21.1618L160.76 19.8548C160.304 20.7196 159.528 21.2895 158.65 21.2895C157.009 21.2895 155.915 20.035 155.915 18.1515C155.912 16.3236 157.006 15.1051 158.647 15.1051ZM158.932 20.2118C159.879 20.2118 160.648 19.2455 160.648 18.0597V16.1762H158.932C158.008 16.1762 157.396 16.9657 157.396 18.1482C157.396 19.3897 158.011 20.2118 158.932 20.2118Z" fill="#07070F"/>
<path d="M165.254 12.953V15.1051H167.577V16.0911H165.254V18.8688C165.254 19.8024 165.585 20.3036 166.201 20.3036C166.807 20.3036 167.262 20.1758 167.757 19.8253V21.0963C167.203 21.2338 166.774 21.2895 166.201 21.2895C164.655 21.2895 163.826 20.4411 163.826 18.8688V13.4902L165.254 12.953Z" fill="#07070F"/>
<path d="M169.182 12.1636C169.182 11.9867 169.201 11.967 169.378 11.967H170.61V13.0251C170.61 13.202 170.59 13.2216 170.413 13.2216H169.182V12.1636ZM170.613 15.1051V19.5502C170.613 20.2675 170.666 21.2338 170.666 21.2338L169.27 21.1618L169.182 19.5862V15.1051H170.613Z" fill="#07070F"/>
<path d="M175.078 15.0133C176.955 15.0133 178.203 16.2679 178.203 18.1514C178.203 20.0349 176.952 21.2895 175.078 21.2895C173.201 21.2895 171.953 20.0349 171.953 18.1514C171.953 16.2679 173.201 15.0133 175.078 15.0133ZM175.078 20.2118C176.064 20.2118 176.722 19.3863 176.722 18.1514C176.722 16.9165 176.064 16.091 175.078 16.091C174.092 16.091 173.434 16.9165 173.434 18.1514C173.434 19.3863 174.089 20.2118 175.078 20.2118Z" fill="#07070F"/>
<path d="M179.539 15.105H180.879L180.957 16.5332C181.442 15.6128 182.228 15.0166 183.113 15.0166C184.669 15.0166 185.704 15.77 185.704 16.9001V21.201H184.272V17.1654C184.272 16.5201 183.771 16.091 183.021 16.091C181.888 16.091 180.967 17.2571 180.967 18.6919V21.201H179.539V15.105Z" fill="#07070F"/>
<path d="M45.9785 30.2288C47.8554 30.2288 49.1067 31.4833 49.1067 33.3668C49.1067 35.2503 47.8554 36.5049 45.9785 36.5049C44.1015 36.5049 42.8535 35.2503 42.8535 33.3668C42.8535 31.4833 44.1048 30.2288 45.9785 30.2288ZM45.9785 35.4272C46.9644 35.4272 47.6229 34.6018 47.6229 33.3668C47.6229 32.1319 46.9644 31.3064 45.9785 31.3064C44.9925 31.3064 44.3341 32.1319 44.3341 33.3668C44.3341 34.6018 44.9958 35.4272 45.9785 35.4272Z" fill="#07070F"/>
<path d="M50.4434 29.0658C50.4434 27.4935 51.2754 26.6451 52.8182 26.6451C53.3914 26.6451 53.8173 26.7008 54.3741 26.8384V28.1094C53.8795 27.7589 53.4242 27.6311 52.8182 27.6311C52.2024 27.6311 51.8715 28.1323 51.8715 29.0658V30.3204H54.0138V31.3064H51.8715V36.4164H50.4434V29.0658Z" fill="#07070F"/>
<path d="M58.5703 27.8113H61.1974C63.7491 27.8113 65.4492 29.495 65.4492 32.0238C65.4492 34.6574 63.7491 36.4164 61.1974 36.4164H58.5703V27.8113ZM60.9976 35.3387C62.7238 35.3387 63.8736 34.0121 63.8736 32.0238C63.8736 30.1403 62.7238 28.8857 60.9976 28.8857H60.0869V35.3387H60.9976Z" fill="#07070F"/>
<path d="M69.16 30.3204H70.4473L71.1614 31.3228L71.3415 30.3204H72.5896V34.7655C72.5896 35.4829 72.642 36.4492 72.642 36.4492L71.3383 36.3771L71.2662 35.0701C70.8109 35.9349 70.0346 36.5049 69.1567 36.5049C67.5189 36.5049 66.4248 35.2503 66.4248 33.3668C66.4281 31.539 67.5189 30.3204 69.16 30.3204ZM69.4449 35.4272C70.3916 35.4272 71.1581 34.4609 71.1581 33.2751V31.3916H69.4449C68.5212 31.3916 67.9087 32.181 67.9087 33.3635C67.9087 34.605 68.5245 35.4272 69.4449 35.4272Z" fill="#07070F"/>
<path d="M74.3721 30.3204H75.7118L75.7904 31.7486C76.2752 30.8281 77.0581 30.2319 77.9458 30.2319C79.5017 30.2319 80.5368 30.9853 80.5368 32.1154V36.4164H79.1086V32.3808C79.1086 31.7355 78.6075 31.3063 77.8574 31.3063C76.724 31.3063 75.8035 32.4725 75.8035 33.9072V36.4164H74.3721V30.3204Z" fill="#07070F"/>
<path d="M85.1778 36.5049C83.1403 36.5049 81.7842 35.2503 81.7842 33.3668C81.7842 31.4833 83.1403 30.2288 85.1778 30.2288C85.7936 30.2288 86.3635 30.3303 86.8745 30.4581V31.9288C86.4454 31.6242 85.8624 31.4506 85.1778 31.4506C84.0313 31.4506 83.2648 32.2171 83.2648 33.3668C83.2648 34.5166 84.028 35.2864 85.1778 35.2864C85.8624 35.2864 86.4454 35.1128 86.8745 34.8081V36.2789C86.3635 36.4034 85.7969 36.5049 85.1778 36.5049Z" fill="#07070F"/>
<path d="M91.1625 35.4272C91.7685 35.4272 92.3647 35.3027 92.8593 34.949V36.2756C92.2959 36.4394 91.7489 36.5016 91.1625 36.5016C89.1775 36.5016 87.8574 35.247 87.8574 33.3635C87.8574 31.48 89.0727 30.2255 90.8939 30.2255C92.5547 30.2255 93.6619 31.2802 93.6619 32.8591V33.2718C93.6619 33.6223 93.4653 33.809 93.1279 33.809H89.3151C89.4461 34.8671 90.0849 35.4272 91.1625 35.4272ZM89.9997 32.8296H92.4106C92.4106 31.7814 91.8799 31.2147 90.8907 31.2147C89.8457 31.2147 89.2823 31.9681 89.2823 33.3668C89.2823 33.4487 89.2856 33.5306 89.2889 33.6092L89.9997 32.8296Z" fill="#07070F"/>
<path d="M98.0713 34.3528C98.769 34.8539 100.092 35.4272 100.931 35.4272C102.054 35.4272 102.808 34.962 102.808 34.2611C102.808 33.5306 101.979 33.0523 100.879 32.6494C99.506 32.1483 98.0713 31.4145 98.0713 29.9569C98.0713 28.4992 99.2276 27.7163 101.376 27.7163C102.163 27.7163 103.09 27.9489 103.699 28.2732V29.7079C103.217 29.2231 102.343 28.794 101.376 28.794C100.214 28.794 99.5912 29.2035 99.5912 29.9601C99.5912 30.5072 100.22 30.7987 101.36 31.2147C102.785 31.7355 104.324 32.4332 104.324 34.1726C104.324 35.5713 102.965 36.5016 100.931 36.5016C100.037 36.5016 98.6249 36.1413 98.0713 35.8399V34.3528Z" fill="#07070F"/>
<path d="M107 30.3204L107.177 31.3195L107.895 30.3204H109.182C110.823 30.3204 111.917 31.539 111.917 33.3668C111.917 35.2503 110.823 36.5049 109.182 36.5049C108.37 36.5049 107.646 36.0037 107.18 35.2274V40H105.749V30.3204H107ZM107.18 33.1866C107.18 34.4248 107.947 35.4272 108.894 35.4272C109.817 35.4272 110.43 34.6017 110.43 33.3668C110.43 32.1843 109.814 31.3948 108.894 31.3948H107.18V33.1866Z" fill="#07070F"/>
<path d="M115.93 30.2288C117.807 30.2288 119.058 31.4833 119.058 33.3668C119.058 35.2503 117.807 36.5049 115.93 36.5049C114.053 36.5049 112.805 35.2503 112.805 33.3668C112.805 31.4833 114.053 30.2288 115.93 30.2288ZM115.93 35.4272C116.916 35.4272 117.574 34.6018 117.574 33.3668C117.574 32.1319 116.916 31.3064 115.93 31.3064C114.944 31.3064 114.285 32.1319 114.285 33.3668C114.285 34.6018 114.944 35.4272 115.93 35.4272Z" fill="#07070F"/>
<path d="M121.734 30.3204L121.809 31.6962C122.317 30.8117 123.152 30.2319 124.092 30.2319H124.682V31.7551H123.699C122.572 31.7551 121.822 32.4364 121.822 33.4585V36.4164H120.391V30.3204H121.734Z" fill="#07070F"/>
<path d="M127.323 28.1683V30.3204H129.645V31.3064H127.323V34.0842C127.323 35.0177 127.654 35.5189 128.269 35.5189C128.875 35.5189 129.331 35.3911 129.825 35.0406V36.3116C129.272 36.4492 128.843 36.5049 128.269 36.5049C126.723 36.5049 125.895 35.6565 125.895 34.0842V28.7055L127.323 28.1683Z" fill="#07070F"/>
<path d="M131.073 34.6935C131.771 35.1946 132.646 35.4633 133.307 35.4633C134.218 35.4633 134.647 35.2143 134.647 34.7623C134.647 34.3561 134.126 34.117 133.396 33.9204C132.344 33.6387 131.073 33.2849 131.073 31.8764C131.073 30.8053 132.043 30.2288 133.844 30.2288C134.414 30.2288 134.971 30.2844 135.541 30.4253V31.86C135.04 31.4997 134.434 31.2671 133.756 31.2671C132.885 31.2671 132.416 31.467 132.416 31.8404C132.416 32.2302 133.012 32.5021 133.72 32.6953C134.771 32.977 135.99 33.3111 135.99 34.6214C135.99 35.8432 134.991 36.5049 133.13 36.5049C132.488 36.5049 131.646 36.3084 131.077 36.0922V34.6935H131.073Z" fill="#07070F"/>
</svg>
