<svg width="300" height="65" viewBox="0 0 300 65" fill="none" xmlns="http://www.w3.org/2000/svg">
<path d="M31.5417 29.8834C29.1922 22.2105 33.5155 14.0878 41.199 11.7383C46.9193 9.99207 52.8883 11.9447 56.5342 16.2257C56.4178 15.7124 56.3067 15.1991 56.148 14.6911C52.793 3.73203 41.1725 -2.43806 30.2029 0.911569C19.228 4.26649 13.0526 15.8711 16.4076 26.8302C19.7625 37.7892 31.3777 43.9646 42.3526 40.6149C42.8659 40.4562 43.3527 40.2657 43.8395 40.0752C38.2515 39.4508 33.288 35.5984 31.5417 29.8834Z" fill="#424895"/>
<path d="M47.0407 28.1372C41.6961 25.8142 35.87 26.1423 31.0175 28.5288C32.6791 28.5711 34.3618 28.9204 35.9758 29.6242C42.7279 32.561 45.8183 40.4086 42.8814 47.1502C39.9445 53.897 32.0864 56.9821 25.3343 54.0505C23.7785 53.3731 22.4238 52.4259 21.2861 51.3041C22.8895 56.3682 26.5778 60.7444 31.8377 63.0304C41.4844 67.2214 52.7027 62.8082 56.9043 53.1774C61.1059 43.5412 56.6874 32.3282 47.0407 28.1372Z" fill="#96C121"/>
<path d="M26.3132 22.6072C28.4299 24.1895 30.0386 26.195 31.1445 28.4069C30.7318 25.4859 29.1972 22.7237 26.6519 20.8134C23.3076 18.3104 19.0478 17.9082 15.4336 19.3635C19.196 19.1306 23.0589 20.1731 26.3132 22.6072Z" fill="#E50074"/>
<path d="M31.1443 28.4073C31.5571 31.3177 30.8639 34.3816 28.9589 36.9216C25.1436 42.0069 17.9258 43.0388 12.8405 39.2288C7.74991 35.4188 6.71804 28.2115 10.5333 23.1262C11.8404 21.3853 13.5549 20.1311 15.4387 19.3691C10.7926 19.6602 6.3 21.8933 3.28905 25.9044C-2.16135 33.1645 -0.684983 43.4674 6.58575 48.9072C13.8565 54.3524 24.1646 52.876 29.615 45.6105C33.4726 40.4617 33.8378 33.7942 31.1443 28.4073Z" fill="#E50074"/>
<path d="M21.974 37.9958C23.8473 33.699 27.1175 30.4552 31.0175 28.5343C25.7417 28.3967 20.667 31.4024 18.4339 36.53C16.1744 41.7211 17.492 47.5526 21.2914 51.3096C19.9579 47.0816 20.069 42.3773 21.974 37.9958Z" fill="#96C121"/>
<path d="M59.3593 21.3903C58.7614 19.4324 57.7824 17.6967 56.5336 16.231C58.7825 26.211 53.3797 36.3552 43.8389 40.0752C45.7544 40.2869 47.7388 40.1281 49.702 39.5302C57.3855 37.1859 61.7088 29.0632 59.3593 21.3903Z" fill="#424895"/>
<path d="M69.228 20.3481H77.8852V22.2267H71.6781V26.1372H76.7263V27.8729H71.6781V32.3602H77.8852V34.2441H69.228V20.3481Z" fill="#F3F5F7"/>
<path d="M82.2084 24.4014V30.9154C82.2084 31.9579 83.0181 32.6511 84.2299 32.6511C86.0608 32.6511 87.5477 30.7725 87.5477 28.4548V24.4014H89.8549V34.2492H87.6906L87.5636 31.942C86.7804 33.4237 85.5157 34.392 84.0817 34.392C81.5682 34.392 79.896 33.175 79.896 31.3493V24.4014H82.2084Z" fill="#F3F5F7"/>
<path d="M94.903 24.4017L95.0247 26.6242C95.8449 25.1954 97.1943 24.2588 98.713 24.2588H99.6655V26.7194H98.078C96.2576 26.7194 95.0458 27.8201 95.0458 29.4711V34.2495H92.7334V24.4017H94.903Z" fill="#F3F5F7"/>
<path d="M106.01 24.2534C109.042 24.2534 111.058 26.2801 111.058 29.3228C111.058 32.3655 109.037 34.3923 106.01 34.3923C102.978 34.3923 100.962 32.3655 100.962 29.3228C100.962 26.2801 102.983 24.2534 106.01 24.2534ZM106.01 32.6513C107.603 32.6513 108.667 31.3178 108.667 29.3228C108.667 27.3279 107.603 25.9944 106.01 25.9944C104.417 25.9944 103.354 27.3279 103.354 29.3228C103.354 31.3178 104.417 32.6513 106.01 32.6513Z" fill="#F3F5F7"/>
<path d="M115.238 24.4014L115.524 26.0153L116.688 24.4014H118.768C121.414 24.4014 123.186 26.3699 123.186 29.3226C123.186 32.3653 121.419 34.392 118.768 34.392C117.456 34.392 116.286 33.5824 115.535 32.3283V40.0383H113.228V24.4014H115.238ZM115.529 29.0316C115.529 31.0318 116.773 32.6511 118.302 32.6511C119.789 32.6511 120.784 31.3176 120.784 29.3226C120.784 27.4123 119.789 26.137 118.302 26.137H115.529V29.0316Z" fill="#F3F5F7"/>
<path d="M129.96 32.6512C130.939 32.6512 131.902 32.4501 132.701 31.8786V34.0218C131.791 34.2864 130.907 34.3869 129.96 34.3869C126.753 34.3869 124.621 32.3602 124.621 29.3175C124.621 26.2748 126.584 24.248 129.526 24.248C132.209 24.248 133.997 25.952 133.997 28.5026V29.1693C133.997 29.7355 133.68 30.0371 133.135 30.0371H126.975C127.187 31.7463 128.219 32.6512 129.96 32.6512ZM128.081 28.4549H131.976C131.976 26.7616 131.119 25.8461 129.521 25.8461C127.833 25.8461 126.922 27.0632 126.922 29.3228C126.922 29.4551 126.928 29.5873 126.933 29.7143L128.081 28.4549Z" fill="#F3F5F7"/>
<path d="M139.908 24.4014H141.988L143.142 26.0206L143.433 24.4014H145.454V31.5822C145.454 32.741 145.539 34.3021 145.539 34.3021L143.433 34.1857L143.321 32.0743C142.586 33.4713 141.332 34.392 139.914 34.392C137.263 34.392 135.495 32.3653 135.495 29.3226C135.495 26.3699 137.257 24.4014 139.908 24.4014ZM140.369 32.6511C141.898 32.6511 143.142 31.09 143.142 29.1745V26.1317H140.369C138.876 26.1317 137.887 27.407 137.887 29.3173C137.887 31.3229 138.882 32.6511 140.369 32.6511Z" fill="#F3F5F7"/>
<path d="M148.333 24.4017H150.497L150.624 26.7088C151.407 25.2219 152.672 24.2588 154.106 24.2588C156.619 24.2588 158.291 25.4759 158.291 27.3015V34.2495H155.984V27.7301C155.984 26.6877 155.175 25.9945 153.963 25.9945C152.132 25.9945 150.645 27.8783 150.645 30.196V34.2495H148.333V24.4017Z" fill="#F3F5F7"/>
<path d="M172.425 34.3924C168.356 34.3924 165.642 31.5561 165.642 27.2963C165.642 23.0418 168.356 20.2002 172.425 20.2002C173.42 20.2002 174.484 20.3642 175.309 20.5653V23.0524C174.616 22.5603 173.817 22.2216 172.711 22.2216C170.028 22.2216 168.235 24.2483 168.235 27.291C168.235 30.3337 169.907 32.3604 172.42 32.3604C173.526 32.3604 174.611 32.0218 175.304 31.5297V34.0167C174.484 34.2231 173.42 34.3924 172.425 34.3924Z" fill="#F3F5F7"/>
<path d="M182.087 24.2534C185.119 24.2534 187.136 26.2801 187.136 29.3228C187.136 32.3655 185.114 34.3923 182.087 34.3923C179.055 34.3923 177.039 32.3655 177.039 29.3228C177.039 26.2801 179.055 24.2534 182.087 24.2534ZM182.087 32.6513C183.68 32.6513 184.744 31.3178 184.744 29.3228C184.744 27.3279 183.68 25.9944 182.087 25.9944C180.495 25.9944 179.431 27.3279 179.431 29.3228C179.431 31.3178 180.495 32.6513 182.087 32.6513Z" fill="#F3F5F7"/>
<path d="M189.295 24.4017H191.459L191.586 26.7088C192.369 25.2219 193.639 24.2588 195.068 24.2588C197.582 24.2588 199.254 25.4759 199.254 27.3015V34.2495H196.941V27.7301C196.941 26.6877 196.132 25.9945 194.92 25.9945C193.089 25.9945 191.602 27.8783 191.602 30.196V34.2495H189.295V24.4017Z" fill="#F3F5F7"/>
<path d="M201.99 22.3749C201.99 19.8349 203.334 18.4644 205.826 18.4644C206.752 18.4644 207.44 18.5543 208.34 18.7766V20.8297C207.541 20.2635 206.81 20.0571 205.826 20.0571C204.831 20.0571 204.297 20.8668 204.297 22.3749V24.4016H207.758V25.9944H204.297V34.2494H201.984V22.3749H201.99Z" fill="#F3F5F7"/>
<path d="M214.398 32.6512C215.377 32.6512 216.34 32.4501 217.139 31.8786V34.0218C216.229 34.2864 215.346 34.3869 214.398 34.3869C211.192 34.3869 209.059 32.3602 209.059 29.3175C209.059 26.2748 211.022 24.248 213.964 24.248C216.647 24.248 218.436 25.952 218.436 28.5026V29.1693C218.436 29.7355 218.118 30.0371 217.573 30.0371H211.414C211.631 31.7463 212.663 32.6512 214.398 32.6512ZM212.52 28.4549H216.415C216.415 26.7616 215.557 25.8461 213.959 25.8461C212.271 25.8461 211.361 27.0632 211.361 29.3228C211.361 29.4551 211.366 29.5873 211.372 29.7143L212.52 28.4549Z" fill="#F3F5F7"/>
<path d="M224.352 24.4018H226.373L227.585 26.0634V18.6074H229.892V31.5826C229.892 32.7415 229.977 34.3025 229.977 34.3025L227.871 34.1861L227.754 32.0165C227.019 33.4452 225.77 34.3925 224.352 34.3925C221.701 34.3925 219.933 32.3657 219.933 29.323C219.933 26.3703 221.701 24.4018 224.352 24.4018ZM224.812 32.6515C226.341 32.6515 227.585 31.0322 227.585 29.032V26.1375H224.812C223.32 26.1375 222.33 27.4127 222.33 29.323C222.33 31.3233 223.32 32.6515 224.812 32.6515Z" fill="#F3F5F7"/>
<path d="M237.391 32.6512C238.37 32.6512 239.333 32.4501 240.132 31.8786V34.0218C239.221 34.2864 238.338 34.3869 237.391 34.3869C234.184 34.3869 232.051 32.3602 232.051 29.3175C232.051 26.2748 234.014 24.248 236.957 24.248C239.64 24.248 241.428 25.952 241.428 28.5026V29.1693C241.428 29.7355 241.111 30.0371 240.566 30.0371H234.406C234.623 31.7463 235.655 32.6512 237.391 32.6512ZM235.512 28.4549H239.407C239.407 26.7616 238.549 25.8461 236.951 25.8461C235.263 25.8461 234.353 27.0632 234.353 29.3228C234.353 29.4551 234.358 29.5873 234.364 29.7143L235.512 28.4549Z" fill="#F3F5F7"/>
<path d="M245.809 24.4017L245.936 26.6242C246.756 25.1954 248.105 24.2588 249.624 24.2588H250.577V26.7194H248.989C247.169 26.7194 245.957 27.8201 245.957 29.4711V34.2495H243.65V24.4017H245.809Z" fill="#F3F5F7"/>
<path d="M256.286 24.4014H258.366L259.52 26.0206L259.811 24.4014H261.832V31.5822C261.832 32.741 261.917 34.3021 261.917 34.3021L259.811 34.1857L259.699 32.0743C258.964 33.4713 257.71 34.392 256.292 34.392C253.64 34.392 251.873 32.3653 251.873 29.3226C251.868 26.3699 253.635 24.4014 256.286 24.4014ZM256.747 32.6511C258.276 32.6511 259.52 31.09 259.52 29.1745V26.1317H256.747C255.254 26.1317 254.265 27.407 254.265 29.3173C254.265 31.3229 255.26 32.6511 256.747 32.6511Z" fill="#F3F5F7"/>
<path d="M266.959 20.9248V24.4014H270.711V25.9942H266.959V30.4816C266.959 31.9897 267.494 32.7993 268.489 32.7993C269.468 32.7993 270.203 32.5929 271.002 32.0267V34.0799C270.108 34.3021 269.415 34.3921 268.489 34.3921C265.991 34.3921 264.652 33.0216 264.652 30.4816V21.7926L266.959 20.9248Z" fill="#F3F5F7"/>
<path d="M273.305 19.6495C273.305 19.3638 273.336 19.332 273.622 19.332H275.612V21.0412C275.612 21.327 275.58 21.3587 275.294 21.3587H273.305V19.6495ZM275.617 24.4014V31.5822C275.617 32.7411 275.702 34.3021 275.702 34.3021L273.448 34.1857L273.305 31.6404V24.4014H275.617Z" fill="#F3F5F7"/>
<path d="M282.829 24.2534C285.862 24.2534 287.878 26.2801 287.878 29.3228C287.878 32.3655 285.856 34.3923 282.829 34.3923C279.797 34.3923 277.781 32.3655 277.781 29.3228C277.781 26.2801 279.797 24.2534 282.829 24.2534ZM282.829 32.6513C284.422 32.6513 285.486 31.3178 285.486 29.3228C285.486 27.3279 284.422 25.9944 282.829 25.9944C281.237 25.9944 280.173 27.3279 280.173 29.3228C280.173 31.3178 281.231 32.6513 282.829 32.6513Z" fill="#F3F5F7"/>
<path d="M290.037 24.4017H292.201L292.328 26.7088C293.112 25.2219 294.382 24.2588 295.81 24.2588C298.324 24.2588 299.996 25.4759 299.996 27.3015V34.2495H297.684V27.7301C297.684 26.6877 296.874 25.9945 295.662 25.9945C293.831 25.9945 292.344 27.8783 292.344 30.196V34.2495H290.037V24.4017Z" fill="#F3F5F7"/>
<path d="M74.2763 48.833C77.3084 48.833 79.3298 50.8597 79.3298 53.9024C79.3298 56.9451 77.3084 58.9719 74.2763 58.9719C71.2441 58.9719 69.228 56.9451 69.228 53.9024C69.228 50.8597 71.2494 48.833 74.2763 48.833ZM74.2763 57.2309C75.8691 57.2309 76.9327 55.8974 76.9327 53.9024C76.9327 51.9075 75.8691 50.574 74.2763 50.574C72.6835 50.574 71.6199 51.9075 71.6199 53.9024C71.6199 55.8974 72.6888 57.2309 74.2763 57.2309Z" fill="#F3F5F7"/>
<path d="M81.4888 46.9545C81.4888 44.4145 82.8328 43.0439 85.3252 43.0439C86.2513 43.0439 86.9392 43.1339 87.8388 43.3562V45.4093C87.0397 44.8431 86.3042 44.6367 85.3252 44.6367C84.3304 44.6367 83.7959 45.4464 83.7959 46.9545V48.9812H87.2567V50.574H83.7959V58.829H81.4888V46.9545Z" fill="#F3F5F7"/>
<path d="M94.6172 44.9277H98.8611C102.983 44.9277 105.73 47.6476 105.73 51.7328C105.73 55.9873 102.983 58.8289 98.8611 58.8289H94.6172V44.9277ZM98.5383 57.088C101.327 57.088 103.184 54.9449 103.184 51.7328C103.184 48.6901 101.327 46.6634 98.5383 46.6634H97.0672V57.088H98.5383Z" fill="#F3F5F7"/>
<path d="M111.725 48.9814H113.804L114.958 50.6007L115.249 48.9814H117.265V56.1622C117.265 57.3211 117.35 58.8822 117.35 58.8822L115.244 58.7658L115.127 56.6544C114.392 58.0514 113.138 58.9721 111.719 58.9721C109.074 58.9721 107.306 56.9454 107.306 53.9027C107.311 50.9499 109.074 48.9814 111.725 48.9814ZM112.185 57.2312C113.714 57.2312 114.953 55.6701 114.953 53.7545V50.7118H112.185C110.693 50.7118 109.703 51.9871 109.703 53.8974C109.703 55.903 110.698 57.2312 112.185 57.2312Z" fill="#F3F5F7"/>
<path d="M120.144 48.9813H122.308L122.435 51.2884C123.218 49.8015 124.483 48.8384 125.917 48.8384C128.431 48.8384 130.103 50.0555 130.103 51.8811V58.8291H127.796V52.3097C127.796 51.2673 126.986 50.574 125.774 50.574C123.943 50.574 122.456 52.4579 122.456 54.7756V58.8291H120.144V48.9813Z" fill="#F3F5F7"/>
<path d="M137.601 58.9719C134.309 58.9719 132.119 56.9451 132.119 53.9024C132.119 50.8597 134.309 48.833 137.601 48.833C138.596 48.833 139.516 48.9971 140.342 49.2034V51.5794C139.649 51.0873 138.707 50.8068 137.601 50.8068C135.749 50.8068 134.51 52.0451 134.51 53.9024C134.51 55.7598 135.743 57.0034 137.601 57.0034C138.707 57.0034 139.649 56.7229 140.342 56.2308V58.6067C139.516 58.8078 138.601 58.9719 137.601 58.9719Z" fill="#F3F5F7"/>
<path d="M147.269 57.2308C148.248 57.2308 149.211 57.0297 150.01 56.4582V58.6014C149.1 58.8659 148.216 58.9665 147.269 58.9665C144.062 58.9665 141.93 56.9398 141.93 53.8971C141.93 50.8543 143.893 48.8276 146.835 48.8276C149.518 48.8276 151.307 50.5316 151.307 53.0821V53.7489C151.307 54.3151 150.989 54.6167 150.444 54.6167H144.284C144.496 56.3259 145.528 57.2308 147.269 57.2308ZM145.39 53.0345H149.285C149.285 51.3412 148.428 50.4257 146.83 50.4257C145.142 50.4257 144.232 51.6428 144.232 53.9024C144.232 54.0346 144.237 54.1669 144.242 54.2939L145.39 53.0345Z" fill="#F3F5F7"/>
<path d="M158.429 55.4953C159.556 56.305 161.694 57.231 163.048 57.231C164.863 57.231 166.08 56.4796 166.08 55.3472C166.08 54.1671 164.742 53.3945 162.964 52.7437C160.746 51.934 158.429 50.7487 158.429 48.3939C158.429 46.0391 160.297 44.7744 163.768 44.7744C165.038 44.7744 166.536 45.1501 167.52 45.674V47.9917C166.742 47.2086 165.329 46.5154 163.768 46.5154C161.889 46.5154 160.884 47.1768 160.884 48.3992C160.884 49.2829 161.9 49.7539 163.742 50.4259C166.043 51.2673 168.53 52.3944 168.53 55.2043C168.53 57.4638 166.334 58.9667 163.048 58.9667C161.604 58.9667 159.323 58.3846 158.429 57.8977V55.4953Z" fill="#F3F5F7"/>
<path d="M172.854 48.9814L173.14 50.5954L174.299 48.9814H176.378C179.029 48.9814 180.797 50.9499 180.797 53.9027C180.797 56.9454 179.029 58.9721 176.378 58.9721C175.066 58.9721 173.896 58.1625 173.145 56.9084V64.6183H170.833V48.9814H172.854ZM173.145 53.6117C173.145 55.6119 174.383 57.2312 175.913 57.2312C177.405 57.2312 178.394 55.8977 178.394 53.9027C178.394 51.9924 177.399 50.7171 175.913 50.7171H173.145V53.6117Z" fill="#F3F5F7"/>
<path d="M187.279 48.833C190.311 48.833 192.332 50.8597 192.332 53.9024C192.332 56.9451 190.311 58.9719 187.279 58.9719C184.247 58.9719 182.23 56.9451 182.23 53.9024C182.23 50.8597 184.247 48.833 187.279 48.833ZM187.279 57.2309C188.872 57.2309 189.935 55.8974 189.935 53.9024C189.935 51.9075 188.872 50.574 187.279 50.574C185.686 50.574 184.622 51.9075 184.622 53.9024C184.622 55.8974 185.686 57.2309 187.279 57.2309Z" fill="#F3F5F7"/>
<path d="M196.655 48.9813L196.777 51.2038C197.597 49.775 198.947 48.8384 200.465 48.8384H201.418V51.299H199.83C198.01 51.299 196.798 52.3997 196.798 54.0507V58.8291H194.486V48.9813H196.655Z" fill="#F3F5F7"/>
<path d="M205.683 45.5049V48.9815H209.435V50.5743H205.683V55.0616C205.683 56.5698 206.218 57.3794 207.212 57.3794C208.191 57.3794 208.927 57.173 209.726 56.6068V58.66C208.832 58.8822 208.138 58.9722 207.212 58.9722C204.715 58.9722 203.376 57.6016 203.376 55.0616V46.3727L205.683 45.5049Z" fill="#F3F5F7"/>
<path d="M211.742 56.0456C212.869 56.8552 214.282 57.2891 215.351 57.2891C216.822 57.2891 217.515 56.8869 217.515 56.1567C217.515 55.5005 216.674 55.1142 215.493 54.7967C213.795 54.3416 211.742 53.7701 211.742 51.4947C211.742 49.7643 213.308 48.833 216.218 48.833C217.139 48.833 218.039 48.923 218.96 49.1505V51.4683C218.15 50.8862 217.171 50.5105 216.076 50.5105C214.668 50.5105 213.911 50.8333 213.911 51.4365C213.911 52.0662 214.874 52.5054 216.017 52.8176C217.716 53.2727 219.684 53.8125 219.684 55.9291C219.684 57.9029 218.071 58.9719 215.065 58.9719C214.028 58.9719 212.668 58.6544 211.747 58.3051V56.0456H211.742Z" fill="#F3F5F7"/>
</svg>
