<svg width="186" height="40" viewBox="0 0 186 40" fill="none" xmlns="http://www.w3.org/2000/svg">
<path d="M19.5246 18.4985C18.0702 13.7488 20.7464 8.72064 25.5026 7.26626C29.0436 6.18529 32.7385 7.39401 34.9955 10.044C34.9234 9.72627 34.8546 9.40853 34.7563 9.09407C32.6796 2.3102 25.4863 -1.50921 18.6959 0.56428C11.9022 2.64104 8.07948 9.82454 10.1562 16.6084C12.233 23.3923 19.423 27.2149 26.2167 25.1415C26.5345 25.0432 26.8358 24.9253 27.1372 24.8073C23.6781 24.4208 20.6056 22.0362 19.5246 18.4985Z" fill="#424895"/>
<path d="M29.1193 17.4179C25.8109 15.9799 22.2044 16.1829 19.2007 17.6603C20.2292 17.6865 21.2709 17.9027 22.2699 18.3383C26.4497 20.1563 28.3626 25.0141 26.5447 29.1873C24.7267 33.3637 19.8624 35.2734 15.6826 33.4587C14.7196 33.0394 13.881 32.4531 13.1768 31.7586C14.1693 34.8934 16.4524 37.6024 19.7084 39.0175C25.6799 41.6118 32.6243 38.8799 35.2251 32.9182C37.826 26.9533 35.0908 20.0122 29.1193 17.4179Z" fill="#96C121"/>
<path d="M16.2884 13.9954C17.5987 14.9748 18.5945 16.2163 19.2791 17.5855C19.0236 15.7773 18.0736 14.0674 16.4981 12.8849C14.4279 11.3355 11.791 11.0866 9.55371 11.9874C11.8827 11.8433 14.2739 12.4886 16.2884 13.9954Z" fill="#E50074"/>
<path d="M19.279 17.585C19.5345 19.3867 19.1053 21.2833 17.9261 22.8556C15.5644 26.0035 11.0964 26.6422 7.94852 24.2837C4.79735 21.9253 4.1586 17.4638 6.52034 14.3159C7.32942 13.2383 8.39073 12.4619 9.55686 11.9902C6.68084 12.1704 3.89983 13.5527 2.03599 16.0357C-1.33792 20.5299 -0.424018 26.9075 4.07671 30.2749C8.57744 33.6456 14.9584 32.7316 18.3323 28.2342C20.7202 25.047 20.9463 20.9197 19.279 17.585Z" fill="#E50074"/>
<path d="M13.6027 23.5201C14.7623 20.8602 16.7866 18.8523 19.2008 17.6632C15.9349 17.578 12.7936 19.4386 11.4113 22.6127C10.0126 25.8261 10.8282 29.4359 13.1801 31.7616C12.3547 29.1443 12.4235 26.2323 13.6027 23.5201Z" fill="#96C121"/>
<path d="M36.7447 13.2406C36.3745 12.0286 35.7685 10.9542 34.9955 10.0469C36.3876 16.2247 33.0432 22.5042 27.1372 24.8069C28.323 24.938 29.5514 24.8397 30.7666 24.4695C35.5229 23.0184 38.1991 17.9903 36.7447 13.2406Z" fill="#424895"/>
<path d="M42.854 12.5959H48.213V13.7588H44.3706V16.1795H47.4956V17.2539H44.3706V20.0317H48.213V21.1978H42.854V12.5959Z" fill="#F3F5F7"/>
<path d="M50.889 15.1056V19.1379C50.889 19.7832 51.3901 20.2123 52.1403 20.2123C53.2736 20.2123 54.1941 19.0495 54.1941 17.6147V15.1056H55.6223V21.2016H54.2825L54.2039 19.7734C53.7191 20.6906 52.9362 21.29 52.0485 21.29C50.4926 21.29 49.4575 20.5366 49.4575 19.4065V15.1056H50.889Z" fill="#F3F5F7"/>
<path d="M58.7473 15.1042L58.8227 16.48C59.3304 15.5955 60.1657 15.0157 61.1058 15.0157H61.6954V16.5389H60.7127C59.5859 16.5389 58.8358 17.2203 58.8358 18.2423V21.2002H57.4043V15.1042H58.7473Z" fill="#F3F5F7"/>
<path d="M65.623 15.0138C67.4999 15.0138 68.748 16.2684 68.748 18.1519C68.748 20.0354 67.4967 21.2899 65.623 21.2899C63.7461 21.2899 62.498 20.0354 62.498 18.1519C62.498 16.2684 63.7493 15.0138 65.623 15.0138ZM65.623 20.2123C66.609 20.2123 67.2674 19.3868 67.2674 18.1519C67.2674 16.9169 66.609 16.0915 65.623 16.0915C64.637 16.0915 63.9786 16.9169 63.9786 18.1519C63.9786 19.3868 64.637 20.2123 65.623 20.2123Z" fill="#F3F5F7"/>
<path d="M71.3356 15.1056L71.5125 16.1047L72.2331 15.1056H73.5204C75.1582 15.1056 76.2556 16.3241 76.2556 18.1519C76.2556 20.0354 75.1615 21.29 73.5204 21.29C72.7081 21.29 71.9841 20.7888 71.519 20.0125V24.7851H70.0908V15.1056H71.3356ZM71.5157 17.9718C71.5157 19.21 72.2855 20.2123 73.2322 20.2123C74.1526 20.2123 74.7684 19.3869 74.7684 18.1519C74.7684 16.9694 74.1526 16.18 73.2322 16.18H71.5157V17.9718Z" fill="#F3F5F7"/>
<path d="M80.4487 20.2119C81.0547 20.2119 81.6508 20.0874 82.1455 19.7336V21.0603C81.5821 21.224 81.035 21.2863 80.4487 21.2863C78.4636 21.2863 77.1436 20.0317 77.1436 18.1482C77.1436 16.2647 78.3588 15.0101 80.1801 15.0101C81.8408 15.0101 82.948 16.0649 82.948 17.6438V18.0565C82.948 18.407 82.7515 18.5937 82.4141 18.5937H78.6012C78.7322 19.6517 79.371 20.2119 80.4487 20.2119ZM79.2858 17.6143H81.6967C81.6967 16.5661 81.1661 15.9994 80.1768 15.9994C79.1319 15.9994 78.5685 16.7528 78.5685 18.1515C78.5685 18.2334 78.5717 18.3153 78.575 18.3939L79.2858 17.6143Z" fill="#F3F5F7"/>
<path d="M86.6069 15.1056H87.8942L88.6083 16.1079L88.7885 15.1056H90.0398V19.5507C90.0398 20.268 90.0922 21.2343 90.0922 21.2343L88.7885 21.1623L88.7197 19.8553C88.2644 20.7201 87.488 21.29 86.6102 21.29C84.9691 21.29 83.875 20.0354 83.875 18.1519C83.875 16.3241 84.9658 15.1056 86.6069 15.1056ZM86.8919 20.2123C87.8385 20.2123 88.6083 19.246 88.6083 18.0602V16.1767H86.8919C85.9681 16.1767 85.3556 16.9662 85.3556 18.1487C85.3556 19.3901 85.9714 20.2123 86.8919 20.2123Z" fill="#F3F5F7"/>
<path d="M91.8213 15.1042H93.161L93.2396 16.5324C93.7244 15.6119 94.5073 15.0157 95.395 15.0157C96.9509 15.0157 97.986 15.7691 97.986 16.8992V21.2002H96.5579V17.1646C96.5579 16.5193 96.0567 16.0902 95.3066 16.0902C94.1732 16.0902 93.2527 17.2563 93.2527 18.691V21.2002H91.8213V15.1042Z" fill="#F3F5F7"/>
<path d="M106.736 21.2894C104.217 21.2894 102.536 19.5337 102.536 16.8968C102.536 14.2632 104.217 12.5042 106.736 12.5042C107.351 12.5042 108.01 12.6057 108.521 12.7302V14.2697C108.092 13.9651 107.597 13.7554 106.912 13.7554C105.252 13.7554 104.141 15.01 104.141 16.8935C104.141 18.777 105.176 20.0316 106.732 20.0316C107.417 20.0316 108.088 19.8219 108.517 19.5173V21.0569C108.01 21.1846 107.351 21.2894 106.736 21.2894Z" fill="#F3F5F7"/>
<path d="M112.717 15.0138C114.594 15.0138 115.842 16.2684 115.842 18.1519C115.842 20.0354 114.59 21.2899 112.717 21.2899C110.84 21.2899 109.592 20.0354 109.592 18.1519C109.592 16.2684 110.84 15.0138 112.717 15.0138ZM112.717 20.2123C113.703 20.2123 114.361 19.3868 114.361 18.1519C114.361 16.9169 113.703 16.0915 112.717 16.0915C111.731 16.0915 111.072 16.9169 111.072 18.1519C111.072 19.3868 111.731 20.2123 112.717 20.2123Z" fill="#F3F5F7"/>
<path d="M117.178 15.1042H118.518L118.597 16.5324C119.081 15.6119 119.868 15.0157 120.752 15.0157C122.308 15.0157 123.343 15.7691 123.343 16.8992V21.2002H121.912V17.1646C121.912 16.5193 121.41 16.0902 120.66 16.0902C119.527 16.0902 118.606 17.2563 118.606 18.691V21.2002H117.178V15.1042Z" fill="#F3F5F7"/>
<path d="M125.036 13.8505C125.036 12.2782 125.868 11.4298 127.411 11.4298C127.985 11.4298 128.41 11.4855 128.967 11.6231V12.894C128.473 12.5435 128.021 12.4158 127.411 12.4158C126.796 12.4158 126.465 12.917 126.465 13.8505V15.1051H128.607V16.0911H126.465V21.2011H125.033V13.8505H125.036Z" fill="#F3F5F7"/>
<path d="M132.718 20.2119C133.324 20.2119 133.92 20.0874 134.415 19.7336V21.0603C133.852 21.224 133.305 21.2863 132.718 21.2863C130.733 21.2863 129.413 20.0317 129.413 18.1482C129.413 16.2647 130.628 15.0101 132.45 15.0101C134.11 15.0101 135.218 16.0649 135.218 17.6438V18.0565C135.218 18.407 135.021 18.5937 134.684 18.5937H130.871C131.005 19.6517 131.644 20.2119 132.718 20.2119ZM131.555 17.6143H133.966C133.966 16.5661 133.436 15.9994 132.446 15.9994C131.401 15.9994 130.838 16.7528 130.838 18.1515C130.838 18.2334 130.841 18.3153 130.845 18.3939L131.555 17.6143Z" fill="#F3F5F7"/>
<path d="M138.879 15.1045H140.13L140.881 16.1331V11.5177H142.309V19.5496C142.309 20.2669 142.361 21.2333 142.361 21.2333L141.058 21.1612L140.985 19.8182C140.53 20.7026 139.757 21.2889 138.879 21.2889C137.238 21.2889 136.144 20.0344 136.144 18.1509C136.144 16.3231 137.238 15.1045 138.879 15.1045ZM139.164 20.2113C140.111 20.2113 140.881 19.2089 140.881 17.9707V16.1789H139.164C138.24 16.1789 137.628 16.9684 137.628 18.1509C137.628 19.3891 138.24 20.2113 139.164 20.2113Z" fill="#F3F5F7"/>
<path d="M146.951 20.2119C147.557 20.2119 148.153 20.0874 148.647 19.7336V21.0603C148.084 21.224 147.537 21.2863 146.951 21.2863C144.966 21.2863 143.646 20.0317 143.646 18.1482C143.646 16.2647 144.861 15.0101 146.682 15.0101C148.343 15.0101 149.45 16.0649 149.45 17.6438V18.0565C149.45 18.407 149.253 18.5937 148.916 18.5937H145.103C145.237 19.6517 145.876 20.2119 146.951 20.2119ZM145.788 17.6143H148.199C148.199 16.5661 147.668 15.9994 146.679 15.9994C145.634 15.9994 145.07 16.7528 145.07 18.1515C145.07 18.2334 145.074 18.3153 145.077 18.3939L145.788 17.6143Z" fill="#F3F5F7"/>
<path d="M152.162 15.1042L152.241 16.48C152.748 15.5955 153.584 15.0157 154.524 15.0157H155.113V16.5389H154.131C153.004 16.5389 152.254 17.2203 152.254 18.2423V21.2002H150.826V15.1042H152.162Z" fill="#F3F5F7"/>
<path d="M158.648 15.1056H159.935L160.649 16.1079L160.829 15.1056H162.081V19.5507C162.081 20.268 162.133 21.2343 162.133 21.2343L160.829 21.1623L160.761 19.8553C160.305 20.7201 159.529 21.29 158.651 21.29C157.01 21.29 155.916 20.0354 155.916 18.1519C155.913 16.3241 157.007 15.1056 158.648 15.1056ZM158.933 20.2123C159.88 20.2123 160.649 19.246 160.649 18.0602V16.1767H158.933C158.009 16.1767 157.397 16.9662 157.397 18.1487C157.397 19.3901 158.012 20.2123 158.933 20.2123Z" fill="#F3F5F7"/>
<path d="M165.255 12.9532V15.1053H167.577V16.0913H165.255V18.8691C165.255 19.8026 165.586 20.3038 166.201 20.3038C166.807 20.3038 167.263 20.1761 167.757 19.8256V21.0965C167.204 21.2341 166.775 21.2898 166.201 21.2898C164.655 21.2898 163.827 20.4414 163.827 18.8691V13.4905L165.255 12.9532Z" fill="#F3F5F7"/>
<path d="M169.182 12.1636C169.182 11.9867 169.202 11.967 169.379 11.967H170.61V13.0251C170.61 13.202 170.591 13.2216 170.414 13.2216H169.182V12.1636ZM170.614 15.1051V19.5502C170.614 20.2675 170.666 21.2338 170.666 21.2338L169.271 21.1618L169.182 19.5862V15.1051H170.614Z" fill="#F3F5F7"/>
<path d="M175.079 15.0138C176.956 15.0138 178.204 16.2684 178.204 18.1519C178.204 20.0354 176.952 21.2899 175.079 21.2899C173.202 21.2899 171.954 20.0354 171.954 18.1519C171.954 16.2684 173.202 15.0138 175.079 15.0138ZM175.079 20.2123C176.065 20.2123 176.723 19.3868 176.723 18.1519C176.723 16.9169 176.065 16.0915 175.079 16.0915C174.093 16.0915 173.434 16.9169 173.434 18.1519C173.434 19.3868 174.089 20.2123 175.079 20.2123Z" fill="#F3F5F7"/>
<path d="M179.54 15.1042H180.88L180.958 16.5324C181.443 15.6119 182.229 15.0157 183.114 15.0157C184.67 15.0157 185.705 15.7691 185.705 16.8992V21.2002H184.273V17.1646C184.273 16.5193 183.772 16.0902 183.022 16.0902C181.889 16.0902 180.968 17.2563 180.968 18.691V21.2002H179.54V15.1042Z" fill="#F3F5F7"/>
<path d="M45.979 30.2286C47.8559 30.2286 49.1072 31.4832 49.1072 33.3667C49.1072 35.2502 47.8559 36.5048 45.979 36.5048C44.102 36.5048 42.854 35.2502 42.854 33.3667C42.854 31.4832 44.1053 30.2286 45.979 30.2286ZM45.979 35.4271C46.9649 35.4271 47.6233 34.6016 47.6233 33.3667C47.6233 32.1318 46.9649 31.3063 45.979 31.3063C44.993 31.3063 44.3346 32.1318 44.3346 33.3667C44.3346 34.6016 44.9963 35.4271 45.979 35.4271Z" fill="#F3F5F7"/>
<path d="M50.4438 29.0654C50.4438 27.493 51.2759 26.6447 52.8187 26.6447C53.3919 26.6447 53.8178 26.7003 54.3746 26.8379V28.1089C53.88 27.7584 53.4247 27.6306 52.8187 27.6306C52.2029 27.6306 51.872 28.1318 51.872 29.0654V30.3199H54.0143V31.3059H51.872V36.4159H50.4438V29.0654Z" fill="#F3F5F7"/>
<path d="M58.5703 27.8108H61.1974C63.7491 27.8108 65.4492 29.4945 65.4492 32.0233C65.4492 34.6569 63.7491 36.4159 61.1974 36.4159H58.5703V27.8108ZM60.9976 35.3382C62.7238 35.3382 63.8736 34.0116 63.8736 32.0233C63.8736 30.1398 62.7238 28.8852 60.9976 28.8852H60.0869V35.3382H60.9976Z" fill="#F3F5F7"/>
<path d="M69.1605 30.3204H70.4478L71.1619 31.3228L71.342 30.3204H72.5901V34.7655C72.5901 35.4829 72.6425 36.4492 72.6425 36.4492L71.3388 36.3771L71.2667 35.0701C70.8114 35.9349 70.0351 36.5049 69.1572 36.5049C67.5194 36.5049 66.4253 35.2503 66.4253 33.3668C66.4286 31.539 67.5194 30.3204 69.1605 30.3204ZM69.4454 35.4272C70.3921 35.4272 71.1586 34.4609 71.1586 33.2751V31.3916H69.4454C68.5217 31.3916 67.9092 32.181 67.9092 33.3635C67.9092 34.605 68.525 35.4272 69.4454 35.4272Z" fill="#F3F5F7"/>
<path d="M74.3721 30.319H75.7118L75.7904 31.7472C76.2752 30.8268 77.0581 30.2306 77.9458 30.2306C79.5017 30.2306 80.5368 30.984 80.5368 32.1141V36.415H79.1086V32.3794C79.1086 31.7341 78.6075 31.305 77.8574 31.305C76.724 31.305 75.8035 32.4711 75.8035 33.9059V36.415H74.3721V30.319Z" fill="#F3F5F7"/>
<path d="M85.1787 36.5048C83.1413 36.5048 81.7852 35.2502 81.7852 33.3667C81.7852 31.4832 83.1413 30.2286 85.1787 30.2286C85.7946 30.2286 86.3645 30.3302 86.8755 30.4579V31.9287C86.4464 31.6241 85.8633 31.4505 85.1787 31.4505C84.0323 31.4505 83.2657 32.217 83.2657 33.3667C83.2657 34.5165 84.029 35.2862 85.1787 35.2862C85.8633 35.2862 86.4464 35.1126 86.8755 34.808V36.2788C86.3645 36.4032 85.7978 36.5048 85.1787 36.5048Z" fill="#F3F5F7"/>
<path d="M91.163 35.4267C91.769 35.4267 92.3652 35.3022 92.8598 34.9485V36.2751C92.2964 36.4389 91.7494 36.5011 91.163 36.5011C89.178 36.5011 87.8579 35.2465 87.8579 33.3631C87.8579 31.4796 89.0732 30.225 90.8944 30.225C92.5552 30.225 93.6624 31.2797 93.6624 32.8586V33.2713C93.6624 33.6218 93.4658 33.8085 93.1284 33.8085H89.3156C89.4466 34.8666 90.0853 35.4267 91.163 35.4267ZM90.0002 32.8291H92.4111C92.4111 31.7809 91.8804 31.2142 90.8912 31.2142C89.8462 31.2142 89.2828 31.9676 89.2828 33.3663C89.2828 33.4482 89.2861 33.5301 89.2894 33.6087L90.0002 32.8291Z" fill="#F3F5F7"/>
<path d="M98.0713 34.3514C98.769 34.8526 100.092 35.4258 100.931 35.4258C102.054 35.4258 102.808 34.9607 102.808 34.2597C102.808 33.5292 101.979 33.051 100.879 32.6481C99.506 32.1469 98.0713 31.4132 98.0713 29.9555C98.0713 28.4978 99.2276 27.715 101.376 27.715C102.163 27.715 103.09 27.9475 103.699 28.2718V29.7066C103.217 29.2218 102.343 28.7927 101.376 28.7927C100.214 28.7927 99.5912 29.2021 99.5912 29.9588C99.5912 30.5058 100.22 30.7974 101.36 31.2134C102.785 31.7342 104.324 32.4319 104.324 34.1713C104.324 35.57 102.965 36.5003 100.931 36.5003C100.037 36.5003 98.6249 36.1399 98.0713 35.8386V34.3514Z" fill="#F3F5F7"/>
<path d="M107.001 30.3204L107.178 31.3195L107.895 30.3204H109.182C110.823 30.3204 111.918 31.539 111.918 33.3668C111.918 35.2503 110.823 36.5049 109.182 36.5049C108.37 36.5049 107.646 36.0037 107.181 35.2274V40H105.75V30.3204H107.001ZM107.181 33.1866C107.181 34.4248 107.947 35.4272 108.894 35.4272C109.818 35.4272 110.43 34.6017 110.43 33.3668C110.43 32.1843 109.815 31.3948 108.894 31.3948H107.181V33.1866Z" fill="#F3F5F7"/>
<path d="M115.93 30.2286C117.807 30.2286 119.058 31.4832 119.058 33.3667C119.058 35.2502 117.807 36.5048 115.93 36.5048C114.053 36.5048 112.805 35.2502 112.805 33.3667C112.805 31.4832 114.053 30.2286 115.93 30.2286ZM115.93 35.4271C116.916 35.4271 117.575 34.6016 117.575 33.3667C117.575 32.1318 116.916 31.3063 115.93 31.3063C114.944 31.3063 114.286 32.1318 114.286 33.3667C114.286 34.6016 114.944 35.4271 115.93 35.4271Z" fill="#F3F5F7"/>
<path d="M121.735 30.319L121.81 31.6948C122.318 30.8104 123.153 30.2306 124.093 30.2306H124.683V31.7538H123.7C122.573 31.7538 121.823 32.4351 121.823 33.4571V36.415H120.392V30.319H121.735Z" fill="#F3F5F7"/>
<path d="M127.323 28.1681V30.3202H129.646V31.3062H127.323V34.0839C127.323 35.0175 127.654 35.5186 128.27 35.5186C128.876 35.5186 129.331 35.3909 129.826 35.0404V36.3114C129.272 36.4489 128.843 36.5046 128.27 36.5046C126.724 36.5046 125.895 35.6562 125.895 34.0839V28.7053L127.323 28.1681Z" fill="#F3F5F7"/>
<path d="M131.074 34.6934C131.771 35.1945 132.646 35.4631 133.308 35.4631C134.218 35.4631 134.647 35.2142 134.647 34.7621C134.647 34.356 134.127 34.1168 133.396 33.9203C132.345 33.6386 131.074 33.2848 131.074 31.8763C131.074 30.8052 132.043 30.2286 133.845 30.2286C134.415 30.2286 134.972 30.2843 135.542 30.4252V31.8599C135.041 31.4996 134.435 31.267 133.756 31.267C132.885 31.267 132.417 31.4668 132.417 31.8403C132.417 32.2301 133.013 32.5019 133.72 32.6952C134.772 32.9769 135.99 33.311 135.99 34.6213C135.99 35.8431 134.991 36.5048 133.131 36.5048C132.489 36.5048 131.647 36.3082 131.077 36.0921V34.6934H131.074Z" fill="#F3F5F7"/>
</svg>
