<svg width="32" height="24" viewBox="0 0 32 24" fill="none" xmlns="http://www.w3.org/2000/svg">
<g clip-path="url(#clip0_439_494)">
<path d="M-2 0H34V24H-2V0Z" fill="white"/>
<path d="M13.6 0H18.4V24H13.6V0ZM-2 9.6H34V14.4H-2V9.6Z" fill="#FF0000"/>
<path d="M4.95605 2.34473C5.51621 2.4183 6.08358 2.4183 6.64373 2.34473C6.31855 3.96538 6.31855 5.63448 6.64373 7.25513C6.08358 7.18156 5.51621 7.18156 4.95605 7.25513C5.28124 5.63448 5.28124 3.96538 4.95605 2.34473Z" fill="#FF0000"/>
<path d="M8.25513 3.95605C8.18156 4.51621 8.18156 5.08358 8.25513 5.64373C6.63448 5.31855 4.96538 5.31855 3.34473 5.64373C3.4183 5.08358 3.4183 4.51621 3.34473 3.95605C4.96538 4.28124 6.63448 4.28124 8.25513 3.95605Z" fill="#FF0000"/>
<path d="M25.3561 2.34473C25.9162 2.4183 26.4836 2.4183 27.0438 2.34473C26.7186 3.96538 26.7186 5.63448 27.0438 7.25513C26.4836 7.18156 25.9162 7.18156 25.3561 7.25513C25.6813 5.63448 25.6813 3.96538 25.3561 2.34473Z" fill="#FF0000"/>
<path d="M28.6552 3.95605C28.5816 4.51621 28.5816 5.08358 28.6552 5.64373C27.0345 5.31855 25.3654 5.31855 23.7448 5.64373C23.8183 5.08358 23.8183 4.51621 23.7448 3.95605C25.3654 4.28124 27.0345 4.28124 28.6552 3.95605Z" fill="#FF0000"/>
<path d="M4.95605 16.7446C5.51621 16.8182 6.08358 16.8182 6.64373 16.7446C6.31855 18.3653 6.31855 20.0344 6.64373 21.655C6.08358 21.5815 5.51621 21.5815 4.95605 21.655C5.28124 20.0344 5.28124 18.3653 4.95605 16.7446Z" fill="#FF0000"/>
<path d="M8.25513 18.356C8.18156 18.9161 8.18156 19.4835 8.25513 20.0436C6.63448 19.7185 4.96538 19.7185 3.34473 20.0436C3.4183 19.4835 3.4183 18.9161 3.34473 18.356C4.96538 18.6811 6.63448 18.6811 8.25513 18.356Z" fill="#FF0000"/>
<path d="M25.3561 16.7446C25.9162 16.8182 26.4836 16.8182 27.0438 16.7446C26.7186 18.3653 26.7186 20.0344 27.0438 21.655C26.4836 21.5815 25.9162 21.5815 25.3561 21.655C25.6813 20.0344 25.6813 18.3653 25.3561 16.7446Z" fill="#FF0000"/>
<path d="M28.6552 18.356C28.5816 18.9161 28.5816 19.4835 28.6552 20.0436C27.0345 19.7185 25.3654 19.7185 23.7448 20.0436C23.8183 19.4835 23.8183 18.9161 23.7448 18.356C25.3654 18.6811 27.0345 18.6811 28.6552 18.356Z" fill="#FF0000"/>
</g>
<defs>
<clipPath id="clip0_439_494">
<rect width="32" height="24" fill="white"/>
</clipPath>
</defs>
</svg>
