<svg width="32" height="24" viewBox="0 0 32 24" fill="none" xmlns="http://www.w3.org/2000/svg">
<g clip-path="url(#clip0_439_714)">
<path d="M0 0H32V24H0V0Z" fill="#CC092F"/>
<path d="M0 0H21V24H0V0Z" fill="#FFD200"/>
<path d="M0 0H11V24H0V0Z" fill="#0046AE"/>
<path d="M14.9817 6.21271C14.9236 6.21008 14.8661 6.22581 14.8173 6.25765C14.875 6.27469 14.9144 6.32792 14.9138 6.38804V6.54692H14.7549C14.6952 6.54754 14.6421 6.50874 14.6245 6.45159C14.5646 6.55298 14.5646 6.67892 14.6245 6.7803C14.6416 6.72262 14.6948 6.68324 14.7549 6.68386H14.9138V7.44755C14.914 7.47561 14.9055 7.50304 14.8894 7.52602C14.8733 7.549 14.8504 7.56638 14.8239 7.57574C14.8997 7.58606 14.9649 7.68776 14.9828 7.74339C15.0007 7.68789 15.0659 7.58606 15.1417 7.57574C15.115 7.56662 15.0919 7.54934 15.0755 7.52633C15.0592 7.50333 15.0505 7.47577 15.0507 7.44755V6.68382H15.2096C15.2694 6.6832 15.3225 6.722 15.34 6.77919C15.3999 6.67778 15.3999 6.55187 15.34 6.45046C15.323 6.50812 15.2697 6.54748 15.2096 6.54686H15.0507V6.388C15.0501 6.3282 15.0889 6.27512 15.1461 6.25759C15.0973 6.22576 15.0399 6.21005 14.9817 6.21269V6.21271Z" fill="black"/>
<path d="M14.9818 6.24563C14.9498 6.24576 14.918 6.25093 14.8876 6.26095C14.906 6.27663 14.9209 6.2961 14.9311 6.31804C14.9413 6.33998 14.9466 6.36387 14.9468 6.38807V6.54694C14.9466 6.54917 14.9462 6.55137 14.9457 6.55354V6.57873H14.9204C14.9183 6.57931 14.9161 6.57969 14.9139 6.57984H14.755C14.7066 6.57952 14.6607 6.55835 14.629 6.52177C14.6184 6.55208 14.6128 6.58391 14.6125 6.61601C14.6127 6.64803 14.6179 6.67982 14.6279 6.71023C14.6596 6.67294 14.706 6.65133 14.755 6.65109H14.9467C14.9465 6.65439 14.9456 6.65758 14.9456 6.66092V6.67735C14.9462 6.6795 14.9466 6.6817 14.9467 6.68392V7.44762C14.9451 7.49411 14.9236 7.53764 14.8875 7.56705C14.9112 7.5818 14.9323 7.60031 14.95 7.62186C14.9629 7.63965 14.9739 7.65874 14.9829 7.67882C14.9918 7.65876 15.0029 7.63967 15.0157 7.62186C15.0332 7.60082 15.0539 7.5827 15.0771 7.56816C15.0592 7.55347 15.0447 7.53511 15.0344 7.51432C15.0242 7.49353 15.0186 7.47079 15.0179 7.44764V6.65212H15.0442C15.0464 6.65154 15.0486 6.65119 15.0508 6.65105H15.2097C15.2336 6.65121 15.2572 6.65647 15.2789 6.66648C15.3007 6.67649 15.32 6.69102 15.3357 6.7091C15.3463 6.67879 15.3518 6.64696 15.3521 6.61488C15.352 6.58286 15.3468 6.55107 15.3368 6.52066C15.3051 6.55794 15.2586 6.57956 15.2097 6.5798H15.0508C15.0486 6.57965 15.0464 6.57928 15.0442 6.57868H15.019V6.55349C15.0184 6.55134 15.0181 6.54913 15.0179 6.5469V6.38804C15.0181 6.36412 15.0233 6.34051 15.0333 6.31878C15.0434 6.29705 15.0579 6.27771 15.076 6.26204C15.0457 6.25147 15.0138 6.24592 14.9818 6.24561" fill="#FFD200"/>
<path d="M16.9702 9.01114C16.8774 8.94817 16.798 8.86733 16.7368 8.77335C16.6004 8.55454 16.5429 8.28593 16.5429 8.01295C16.5429 7.89756 16.6722 7.76767 16.6722 7.67435C16.673 7.5989 16.6686 7.5235 16.659 7.44867C16.7049 7.45492 16.785 7.53632 16.785 7.53632C16.785 7.53632 16.7823 7.30221 16.7083 7.26131C16.7083 7.26131 16.7382 7.23053 16.8464 7.22734C16.816 7.15037 16.6656 7.05641 16.6656 7.05641C16.6753 7.04133 16.6889 7.02921 16.705 7.02135C16.7466 7.00096 16.7909 6.98657 16.8365 6.97861C16.7865 6.96778 16.7371 6.95423 16.6886 6.93805C16.5486 6.89126 16.4117 6.83566 16.2788 6.77153C16.1088 6.68628 15.9211 6.64236 15.731 6.64333C15.6544 6.64335 15.5417 6.64542 15.4757 6.68939C15.4152 6.72952 15.4201 6.78172 15.399 6.80004C15.3491 6.84319 15.2637 6.84167 15.2225 6.84167C14.9563 6.84167 14.9464 7.12657 14.9464 7.12657C14.9464 7.12657 15.0145 7.02356 15.1349 7.02356C15.335 7.02356 15.4866 7.13259 15.4866 7.17366C15.4866 7.19029 15.466 7.19337 15.4647 7.19337C15.334 7.19337 15.1367 7.11812 15.0319 7.11448V7.16598C15.2658 7.24737 15.503 7.36261 15.503 7.87051C15.503 8.19034 15.4647 8.51668 15.3047 8.77337C15.243 8.86734 15.1633 8.94816 15.0702 9.01116L16.0202 9.18239L16.9702 9.01116V9.01114Z" fill="black"/>
<path d="M16.0205 8.79728L15.0706 9.01131C15.0274 8.99826 14.8242 8.93512 14.6816 8.85573C14.4306 8.71593 14.3005 8.57683 14.0023 8.56317V8.33634C14.0023 8.21515 14.0461 8.10597 14.0461 7.9901C13.9204 7.95638 13.5714 7.52971 13.2495 7.34033C12.7759 7.64713 12.4091 8.15077 12.4091 8.38238V15.0925C12.4091 15.1925 12.3489 15.3336 12.3489 15.3336C12.5218 15.2605 12.8388 14.8268 12.9055 14.6619V14.7408C13.1666 14.6218 13.3579 14.3088 13.4435 14.147L13.449 14.2291C13.6823 14.0246 13.9793 12.8157 13.9793 12.8157L14.4742 13.3021C14.4742 13.3021 14.2952 13.6654 14.2255 13.7305C14.2586 13.7343 14.2919 13.7361 14.3252 13.736C14.2926 13.7828 14.0438 14.141 13.9658 14.2761C13.8928 14.4025 13.8413 14.3463 13.7291 14.3463C13.6361 14.3463 13.4252 14.4945 13.3906 14.5545C13.3531 14.6158 13.3313 14.6854 13.327 14.7572C13.327 14.8265 13.4004 14.9215 13.4004 14.9215C13.4032 14.9047 13.4108 14.8891 13.4223 14.8766L13.6437 15.1483C13.6658 15.1728 13.7645 15.1887 13.7993 15.1571C13.8863 15.078 13.9705 15.0227 14.048 14.9084C14.0879 14.8495 14.0909 14.782 14.1367 14.7188L14.6649 14.0099L14.678 14.0833C14.757 13.9237 15.1371 13.6187 15.1371 13.6187L15.5347 13.8017C15.5347 13.8017 14.7923 15.5083 14.1333 15.7707C14.1333 15.7707 14.42 15.8925 14.7721 16.0753L14.9299 16.1597C14.9742 16.1064 15.0209 16.0471 15.0668 15.9855C15.2774 15.7038 15.4833 15.3774 15.4833 15.3774C15.4976 15.4622 15.3864 15.724 15.1984 16.0469L15.08 16.2441L15.2225 16.3274C15.5712 16.5373 15.8988 16.7785 16.0201 17.0001L16.1057 16.7859L16.0201 16.5717V9.08145L16.0629 8.97444L16.0205 8.79728Z" fill="black"/>
<path d="M16.0201 16.5716C15.897 16.4381 15.6397 16.2751 15.3506 16.1246C15.7002 15.4971 15.8734 14.5053 15.7922 14.3079C15.7922 14.3079 15.6486 14.8222 15.4733 15.1154C15.3109 15.3869 15.111 15.6922 14.9178 15.9186C14.7726 15.8558 14.6241 15.8009 14.4729 15.7542C15.0521 15.3081 15.6442 13.8334 15.6442 13.8334L15.0318 13.5496C15.0318 13.5496 14.8027 13.8167 14.7283 13.8663C14.7283 13.8663 14.6966 13.7335 14.6779 13.6866C14.6779 13.6866 14.5902 13.753 14.5421 13.7546L14.5169 13.6055C14.4564 13.6458 14.3558 13.6373 14.3558 13.6373C14.4442 13.5955 14.5487 13.3392 14.5487 13.3392L13.9639 12.5614C13.9639 12.5614 13.7585 13.5484 13.5245 13.7513V9.50104L13.7097 9.67304L13.9902 9.41117V9.21175L13.7415 9.44402V8.84248C13.7702 8.79935 13.7972 8.75512 13.8226 8.70991C13.8628 8.78009 13.9929 8.9952 14.1458 9.12738C14.1709 9.02512 14.3364 8.92795 14.3364 8.92795C14.3364 8.92795 14.3957 9.08864 14.4865 9.12845C14.5184 9.0722 14.709 8.94768 14.709 8.94768C14.709 8.94768 14.546 8.97244 14.48 9.03426C14.4233 9.02156 14.4087 8.79758 14.4087 8.79758C14.4087 8.79758 14.1689 8.91442 14.1271 8.99808C14.0814 8.98571 14.0102 8.80571 13.9825 8.73183C14.0418 8.72522 14.1014 8.72193 14.1611 8.72198C14.2295 8.72198 14.317 8.75439 14.4087 8.79758C14.5095 8.84501 14.6148 8.90507 14.709 8.9477C14.8295 9.00228 15.0119 9.01337 15.065 9.01564C15.0012 9.05996 14.9342 9.09951 14.8646 9.13397C14.8646 9.13397 15.1516 9.13132 15.3532 9.03096C15.4265 8.98674 15.4968 8.93769 15.5636 8.88413C15.5329 8.97367 15.4861 9.05684 15.4255 9.12957C15.7217 9.1045 15.8691 8.93539 15.9109 8.87865C15.9376 8.95111 15.9745 9.01937 16.0205 9.08134H16.1275V16.3585L16.0201 16.5716ZM13.8379 8.0119L13.8433 8.14777V8.54774C13.7359 8.51077 13.6009 8.33428 13.5355 8.24094V8.18615C13.5362 8.16524 13.5412 8.14471 13.5503 8.12585C13.5593 8.107 13.5722 8.09022 13.5881 8.07658L13.5234 8.0536C13.4917 8.08715 13.4733 8.13121 13.4719 8.17739V8.20918L13.2791 8.41628L13.0896 8.12919V8.05908C13.0896 8.01182 13.1259 7.95912 13.1564 7.92321L13.0928 7.9002C13.0607 7.94176 13.0271 7.99778 13.0271 8.0503V8.10725L12.809 8.3319L12.6984 8.09413C12.8312 7.91017 13.0465 7.70419 13.2495 7.5564C13.2495 7.5564 13.6896 7.96051 13.8379 8.0119ZM12.7223 8.3998V8.72964L12.5689 8.87206V8.38229C12.5733 8.32379 12.5913 8.26712 12.6215 8.21682L12.7223 8.3998ZM13.2001 8.52689V8.73069L13.0237 8.89616V8.25847L13.2001 8.52689ZM12.9612 8.89507L12.7848 8.73071V8.49187L12.9612 8.30669V8.89507ZM13.7665 8.64743C13.7256 8.70533 13.6183 8.84693 13.5025 8.90932V8.34941C13.529 8.39361 13.6509 8.59074 13.7665 8.64743ZM13.44 8.37788V8.89505L13.2635 8.73069V8.54771L13.44 8.37788ZM12.7223 8.92902V9.44512L12.5689 9.30156V9.07255L12.7223 8.92902ZM12.961 9.09449V9.27965L12.7846 9.44398V8.93011L12.961 9.09449ZM13.1999 8.93015V9.44404L13.0235 9.27858V9.0956L13.1999 8.93015ZM13.4399 9.0956V9.27858L13.2634 9.44402V8.93015L13.4399 9.0956ZM13.6787 9.44512L13.5023 9.27965V9.10765C13.5631 9.07051 13.6243 9.00226 13.6787 8.93015L13.6787 9.44512ZM13.2317 9.67302L13.418 9.49989V13.7512L13.4399 14.0997L13.0454 14.4985V9.49875L13.2317 9.67302ZM12.9391 14.3396C12.9391 14.4763 12.6895 14.795 12.5687 14.8678V9.50109L12.7528 9.67308L12.9391 9.49993V14.3396Z" fill="#B07E5B"/>
<path d="M14.4862 13.8782L14.622 13.785L14.6429 13.8914L14.0851 14.6496C14.044 14.7049 14.0095 14.8457 14.0095 14.8457C14.0095 14.8457 13.9493 14.8172 13.9493 14.7657C13.9493 14.7152 13.9559 14.655 13.9559 14.655C13.9399 14.6714 13.9208 14.6843 13.8997 14.6931C13.8786 14.702 13.856 14.7065 13.8331 14.7065C13.8331 14.6444 13.9533 14.577 13.958 14.4885C13.8664 14.5565 13.7868 14.5216 13.6808 14.5543C13.5654 14.5898 13.5333 14.6383 13.4979 14.6365C13.477 14.6353 13.4581 14.5994 13.4661 14.5773C13.4799 14.539 13.6226 14.4332 13.7224 14.414C13.7464 14.4095 13.9344 14.455 13.9723 14.3965L14.4062 13.7271C14.4211 13.7242 14.4356 13.719 14.4489 13.7117C14.4489 13.7117 14.4474 13.8348 14.4862 13.8782H14.4862ZM13.6126 14.6287C13.6201 14.6369 13.6196 14.6496 13.6115 14.6571L13.5501 14.7108C13.5413 14.7177 13.5287 14.7162 13.5217 14.7075C13.5141 14.6994 13.5146 14.6866 13.5228 14.679L13.5841 14.6254C13.586 14.6237 13.5883 14.6224 13.5908 14.6216C13.5932 14.6209 13.5958 14.6207 13.5984 14.621C13.6039 14.6217 13.6089 14.6245 13.6126 14.6287ZM13.7057 14.6933C13.7239 14.7125 13.7231 14.7427 13.704 14.7609L13.7035 14.7613L13.5545 14.8916C13.5319 14.9084 13.4999 14.9037 13.4832 14.8811C13.4682 14.8609 13.4701 14.8329 13.4877 14.815L13.6367 14.6857C13.6441 14.6794 13.6533 14.6756 13.663 14.6747C13.6794 14.6738 13.6952 14.6807 13.7057 14.6933ZM13.7911 14.7941C13.7954 14.7987 13.7988 14.804 13.8011 14.8099C13.8033 14.8157 13.8044 14.822 13.8043 14.8282C13.8041 14.8345 13.8027 14.8407 13.8001 14.8464C13.7976 14.8521 13.7939 14.8573 13.7894 14.8616L13.7889 14.8621L13.6388 14.9924C13.6181 15.0091 13.5877 15.0058 13.571 14.985L13.5709 14.9848C13.5621 14.9753 13.5574 14.9628 13.5578 14.9498C13.5582 14.9369 13.5637 14.9247 13.5731 14.9158L13.7221 14.7865C13.7291 14.7802 13.738 14.7764 13.7473 14.7755C13.764 14.7746 13.7802 14.7814 13.7911 14.7941ZM13.8426 14.8741C13.8506 14.8734 13.8586 14.8747 13.866 14.8777C13.8735 14.8808 13.8801 14.8855 13.8853 14.8916C13.9036 14.9114 13.9027 14.9422 13.8831 14.9607L13.7341 15.09C13.7239 15.0973 13.7113 15.1006 13.6988 15.0992C13.6863 15.0978 13.6748 15.0918 13.6665 15.0824C13.6581 15.073 13.6536 15.0608 13.6538 15.0482C13.6539 15.0356 13.6587 15.0236 13.6672 15.0143L13.8174 14.884C13.8245 14.878 13.8333 14.8746 13.8426 14.8741Z" fill="#CC092F"/>
<path d="M16.0191 8.79728L16.9691 9.01131C17.0123 8.99826 17.2155 8.93512 17.3581 8.85573C17.6091 8.71593 17.7392 8.57683 18.0374 8.56317V8.33634C18.0374 8.21515 17.9936 8.10597 17.9936 7.9901C18.1193 7.95638 18.4682 7.52971 18.7902 7.34033C19.2638 7.64713 19.6306 8.15077 19.6306 8.38238V15.0925C19.6306 15.1925 19.6908 15.3336 19.6908 15.3336C19.5179 15.2605 19.2009 14.8268 19.1342 14.6619V14.7408C18.873 14.6218 18.6818 14.3088 18.5962 14.147L18.5907 14.2291C18.3574 14.0246 18.0604 12.8157 18.0604 12.8157L17.5655 13.3021C17.5655 13.3021 17.7445 13.6654 17.8142 13.7305C17.7811 13.7343 17.7478 13.7361 17.7145 13.736C17.7471 13.7828 17.9959 14.141 18.0739 14.2761C18.1469 14.4025 18.1984 14.3463 18.3106 14.3463C18.4036 14.3463 18.6145 14.4945 18.6491 14.5545C18.6866 14.6158 18.7084 14.6854 18.7127 14.7572C18.7127 14.8265 18.6392 14.9215 18.6392 14.9215C18.6365 14.9047 18.6289 14.8891 18.6173 14.8766L18.396 15.1483C18.3739 15.1728 18.2752 15.1887 18.2404 15.1571C18.1534 15.078 18.0691 15.0227 17.9917 14.9084C17.9518 14.8495 17.9488 14.782 17.9029 14.7188L17.3748 14.0099L17.3617 14.0833C17.2827 13.9237 16.9026 13.6187 16.9026 13.6187L16.505 13.8017C16.505 13.8017 17.2474 15.5083 17.9064 15.7707C17.9064 15.7707 17.6197 15.8925 17.2676 16.0753L17.1098 16.1597C17.0655 16.1064 17.0188 16.0471 16.9728 15.9855C16.7623 15.7038 16.5564 15.3774 16.5564 15.3774C16.5421 15.4622 16.6533 15.724 16.8413 16.0469L16.9597 16.2441L16.8172 16.3274C16.4684 16.5373 16.1409 16.7785 16.0196 17.0001L15.934 16.7859L16.0196 16.5717V9.08145L15.9768 8.97444L16.0191 8.79728Z" fill="black"/>
<path d="M16.0199 16.5716C16.143 16.4381 16.4002 16.2751 16.6894 16.1246C16.3398 15.4971 16.1665 14.5053 16.2478 14.3079C16.2478 14.3079 16.3913 14.8222 16.5667 15.1154C16.7291 15.3869 16.9289 15.6922 17.1222 15.9186C17.2674 15.8558 17.4159 15.8009 17.5671 15.7542C16.9879 15.3081 16.3957 13.8334 16.3957 13.8334L17.0081 13.5496C17.0081 13.5496 17.2372 13.8167 17.3116 13.8663C17.3116 13.8663 17.3434 13.7335 17.362 13.6866C17.362 13.6866 17.4498 13.753 17.4979 13.7546L17.5231 13.6055C17.5835 13.6458 17.6841 13.6373 17.6841 13.6373C17.5958 13.5955 17.4913 13.3392 17.4913 13.3392L18.0761 12.5614C18.0761 12.5614 18.2815 13.5484 18.5154 13.7513V9.50104L18.3303 9.67304L18.0498 9.41117V9.21175L18.2985 9.44402V8.84248C18.2698 8.79935 18.2427 8.75512 18.2174 8.70991C18.1772 8.78009 18.0471 8.9952 17.8942 9.12738C17.8691 9.02512 17.7036 8.92795 17.7036 8.92795C17.7036 8.92795 17.6442 9.08864 17.5535 9.12845C17.5215 9.0722 17.331 8.94768 17.331 8.94768C17.331 8.94768 17.494 8.97244 17.56 9.03426C17.6167 9.02156 17.6313 8.79758 17.6313 8.79758C17.6313 8.79758 17.8711 8.91442 17.9128 8.99808C17.9586 8.98571 18.0298 8.80571 18.0575 8.73183C17.9982 8.72522 17.9386 8.72193 17.8789 8.72198C17.8105 8.72198 17.723 8.75439 17.6313 8.79758C17.5305 8.84501 17.4251 8.90507 17.331 8.9477C17.2105 9.00228 17.0281 9.01337 16.9749 9.01564C17.0388 9.05996 17.1058 9.09951 17.1754 9.13397C17.1754 9.13397 16.8884 9.13132 16.6867 9.03096C16.6134 8.98674 16.5432 8.93769 16.4764 8.88413C16.5071 8.97367 16.5539 9.05684 16.6145 9.12957C16.3183 9.1045 16.1709 8.93539 16.1291 8.87865C16.1024 8.95111 16.0655 9.01937 16.0195 9.08134H15.9125V16.3585L16.0199 16.5716ZM18.2021 8.0119L18.1966 8.14777V8.54774C18.3041 8.51077 18.4391 8.33428 18.5045 8.24094V8.18615C18.5038 8.16524 18.4987 8.14471 18.4897 8.12585C18.4806 8.107 18.4678 8.09022 18.4519 8.07658L18.5166 8.0536C18.5483 8.08715 18.5667 8.13121 18.5681 8.17739V8.20918L18.7609 8.41628L18.9504 8.12919V8.05908C18.9504 8.01182 18.9141 7.95912 18.8836 7.92321L18.9472 7.9002C18.9792 7.94176 19.0129 7.99778 19.0129 8.0503V8.10725L19.2309 8.3319L19.3416 8.09413C19.2088 7.91017 18.9934 7.70419 18.7905 7.5564C18.7905 7.5564 18.3503 7.96051 18.2021 8.0119ZM19.3176 8.3998V8.72964L19.471 8.87206V8.38229C19.4667 8.32379 19.4487 8.26712 19.4185 8.21682L19.3176 8.3998ZM18.8399 8.52689V8.73069L19.0163 8.89616V8.25847L18.8399 8.52689ZM19.0788 8.89507L19.2552 8.73071V8.49187L19.0788 8.30669V8.89507ZM18.2735 8.64743C18.3144 8.70533 18.4217 8.84693 18.5375 8.90932V8.34941C18.511 8.39361 18.3891 8.59074 18.2735 8.64743ZM18.6 8.37788V8.89505L18.7764 8.73069V8.54771L18.6 8.37788ZM19.3177 8.92902V9.44512L19.4711 9.30156V9.07255L19.3177 8.92902ZM19.0789 9.09449V9.27965L19.2554 9.44398V8.93011L19.0789 9.09449ZM18.8401 8.93015V9.44404L19.0165 9.27858V9.0956L18.8401 8.93015ZM18.6001 9.0956V9.27858L18.7765 9.44402V8.93015L18.6001 9.0956ZM18.3613 9.44512L18.5377 9.27965V9.10765C18.4769 9.07051 18.4157 9.00226 18.3613 8.93015L18.3613 9.44512ZM18.8083 9.67302L18.622 9.49989V13.7512L18.6001 14.0997L18.9945 14.4985V9.49875L18.8083 9.67302ZM19.1009 14.3396C19.1009 14.4763 19.3505 14.795 19.4713 14.8678V9.50109L19.2872 9.67308L19.1009 9.49993V14.3396Z" fill="#B07E5B"/>
<path d="M17.5536 13.8782L17.4178 13.785L17.397 13.8914L17.9547 14.6496C17.9958 14.7049 18.0303 14.8457 18.0303 14.8457C18.0303 14.8457 18.0905 14.8172 18.0905 14.7657C18.0905 14.7152 18.084 14.655 18.084 14.655C18.1 14.6714 18.1191 14.6843 18.1402 14.6931C18.1612 14.702 18.1839 14.7065 18.2067 14.7065C18.2067 14.6444 18.0865 14.577 18.0818 14.4885C18.1734 14.5565 18.253 14.5216 18.359 14.5543C18.4744 14.5898 18.5066 14.6383 18.542 14.6365C18.5628 14.6353 18.5817 14.5994 18.5737 14.5773C18.5599 14.539 18.4172 14.4332 18.3174 14.414C18.2935 14.4095 18.1054 14.455 18.0675 14.3965L17.6337 13.7271C17.6187 13.7242 17.6043 13.719 17.591 13.7117C17.591 13.7117 17.5924 13.8348 17.5537 13.8782H17.5536ZM18.4272 14.6287C18.4197 14.6369 18.4202 14.6496 18.4284 14.6571L18.4897 14.7108C18.4985 14.7177 18.5112 14.7162 18.5182 14.7075C18.5257 14.6994 18.5252 14.6866 18.5171 14.679L18.4557 14.6254C18.4538 14.6237 18.4515 14.6224 18.4491 14.6216C18.4466 14.6209 18.444 14.6207 18.4415 14.621C18.4359 14.6217 18.4309 14.6245 18.4272 14.6287ZM18.3341 14.6933C18.3159 14.7125 18.3167 14.7427 18.3359 14.7609L18.3363 14.7613L18.4853 14.8916C18.5079 14.9084 18.5399 14.9037 18.5567 14.8811C18.5716 14.8609 18.5697 14.8329 18.5522 14.815L18.4031 14.6857C18.3957 14.6794 18.3865 14.6756 18.3768 14.6747C18.3604 14.6738 18.3446 14.6807 18.3341 14.6933ZM18.2487 14.7941C18.2444 14.7987 18.241 14.804 18.2387 14.8099C18.2365 14.8157 18.2354 14.822 18.2356 14.8282C18.2357 14.8345 18.2371 14.8407 18.2397 14.8464C18.2422 14.8521 18.2459 14.8573 18.2504 14.8616L18.2509 14.8621L18.401 14.9924C18.4218 15.0091 18.4521 15.0058 18.4688 14.985L18.4689 14.9848C18.4777 14.9753 18.4825 14.9628 18.482 14.9498C18.4816 14.9369 18.4761 14.9247 18.4667 14.9158L18.3177 14.7865C18.3107 14.7802 18.3019 14.7764 18.2925 14.7755C18.2758 14.7746 18.2596 14.7814 18.2487 14.7941ZM18.1973 14.8741C18.1893 14.8734 18.1812 14.8747 18.1738 14.8777C18.1664 14.8808 18.1598 14.8855 18.1545 14.8916C18.1362 14.9114 18.1372 14.9422 18.1567 14.9607L18.3057 15.09C18.3159 15.0973 18.3285 15.1006 18.341 15.0992C18.3535 15.0978 18.365 15.0918 18.3734 15.0824C18.3817 15.073 18.3862 15.0608 18.3861 15.0482C18.3859 15.0356 18.3811 15.0236 18.3726 15.0143L18.2225 14.884C18.2154 14.878 18.2065 14.8746 18.1973 14.8741Z" fill="#CC092F"/>
<path d="M15.8001 6.71337C16.0454 6.71337 16.2179 6.82518 16.4499 6.92811C16.5107 6.95508 16.5666 6.97693 16.6164 6.99384C16.5894 7.01454 16.5679 7.04167 16.554 7.07275C16.554 7.07275 16.658 7.09202 16.7052 7.17906C16.7052 7.17906 16.6063 7.19028 16.5901 7.24807C16.6455 7.25224 16.7005 7.32206 16.7008 7.38944L16.5605 7.34558C16.5821 7.45384 16.5935 7.5639 16.5945 7.67429C16.5945 7.76175 16.4685 7.86466 16.4685 8.01287C16.4685 8.47805 16.5857 8.65686 16.669 8.80067C16.7016 8.85694 16.7281 8.92168 16.783 8.9705C16.5429 8.84266 16.3644 8.68286 16.3644 8.53443V7.97234H16.302V8.53443C16.302 8.64207 16.3283 8.69222 16.3283 8.69222C16.3659 8.81131 16.4421 8.99512 16.4893 9.06913C16.2684 8.94974 16.1562 8.80024 16.1562 8.74481V7.97231H16.0938V8.75574L16.1058 8.80942C16.079 8.84966 16.0442 8.8973 16.0203 8.91351C15.9965 8.89733 15.9628 8.8496 15.936 8.80942L15.948 8.75574V7.97231H15.8856V8.74481C15.8856 8.80022 15.7734 8.94974 15.5525 9.06913C15.5997 8.9951 15.6758 8.81131 15.7135 8.69222C15.7135 8.69222 15.7398 8.64209 15.7398 8.53443V7.97234H15.6774V8.53443C15.6774 8.68269 15.4996 8.84275 15.2599 8.9705C15.3142 8.92164 15.3403 8.85662 15.3727 8.80067C15.4639 8.6434 15.5765 8.4436 15.5765 7.8748C15.5765 7.66132 15.545 7.51619 15.49 7.41461C15.4733 7.38109 15.4507 7.29188 15.5787 7.29188C15.645 7.29188 15.7968 7.40913 15.7968 7.40913C15.7907 7.35072 15.7605 7.29749 15.7135 7.2623C15.7039 7.25473 15.6959 7.24529 15.6901 7.23455C15.6843 7.22381 15.6807 7.212 15.6795 7.19982C15.6884 7.16689 15.7095 7.13862 15.7387 7.12093C15.7565 7.11284 15.4779 7.0643 15.4779 6.93795C15.4779 6.91165 15.4945 6.89412 15.5524 6.89412C15.6283 6.89412 15.7517 6.98506 15.8614 6.98506C15.9425 6.98506 15.9745 6.96533 16.0575 6.96533C16.159 6.96533 16.3708 7.15751 16.4432 7.15049C16.3622 7.09966 16.2314 6.90724 16.0334 6.90724C15.9647 6.90724 15.9025 6.92259 15.8384 6.92259C15.7561 6.92259 15.6752 6.84697 15.5864 6.84697C15.5268 6.84697 15.4603 6.85029 15.4505 6.8349C15.4332 6.80804 15.4488 6.79245 15.4647 6.77026C15.4949 6.72837 15.5796 6.71622 15.6631 6.7133C15.6881 6.71243 15.7131 6.712 15.7365 6.71221L15.8001 6.71335L15.8001 6.71337Z" fill="#B07E5B"/>
<path d="M15.0037 7.01419C15.0427 6.95122 15.1123 6.91385 15.1864 6.91614C15.2411 6.91614 15.4216 6.91235 15.4216 6.91235C15.4457 6.97487 15.5554 7.07934 15.5554 7.18799C15.5554 7.18799 15.444 6.98729 15.1332 6.98729C15.0886 6.9866 15.0443 6.99578 15.0037 7.01417L15.0037 7.01419ZM15.509 7.2263C15.509 7.2263 15.4428 7.29603 15.4285 7.33325C15.3629 7.30842 15.2487 7.19068 15.2487 7.19068C15.2487 7.19068 15.3455 7.24723 15.509 7.2263H15.509Z" fill="#CC092F"/>
<path d="M15.4041 7.04167C15.4041 7.04167 15.3278 7.01719 15.3278 6.99155C15.3278 6.95888 15.3649 6.95888 15.387 6.98433C15.3976 7.00165 15.4035 7.02143 15.4041 7.04169L15.4041 7.04167Z" fill="black"/>
<path d="M15.7602 7.20341C15.8474 7.20341 15.918 7.14979 15.918 7.08364C15.918 7.01749 15.8474 6.96387 15.7602 6.96387C15.6731 6.96387 15.6024 7.01749 15.6024 7.08364C15.6024 7.14979 15.6731 7.20341 15.7602 7.20341Z" fill="black"/>
<path d="M15.7602 7.19309C15.8208 7.19309 15.8698 7.14402 15.8698 7.08348C15.8698 7.02295 15.8208 6.97388 15.7602 6.97388C15.6997 6.97388 15.6506 7.02295 15.6506 7.08348C15.6506 7.14402 15.6997 7.19309 15.7602 7.19309Z" fill="#FFD200"/>
<path d="M15.7604 7.13387C15.7881 7.13387 15.8106 7.11139 15.8106 7.08366C15.8106 7.05593 15.7881 7.03345 15.7604 7.03345C15.7327 7.03345 15.7102 7.05593 15.7102 7.08366C15.7102 7.11139 15.7327 7.13387 15.7604 7.13387Z" fill="black"/>
<path d="M13.9896 14.9604L14.3364 15.1496L14.2523 15.5355L13.9055 15.3463L13.9896 14.9604Z" fill="black"/>
<path d="M12.3742 11.2529L12.2493 11.3099L13.6605 14.401H13.8106L12.3742 11.2529ZM14.0385 14.8984L13.9367 15.0035L14.0002 15.1438L14.124 15.0868L14.0385 14.8984Z" fill="black"/>
<path d="M12.8128 13.6902C12.8128 13.6902 12.9316 13.9357 13.022 13.9694C12.9753 13.9566 12.8236 14.0123 12.8236 14.0123C12.8236 14.0123 13.0911 14.2513 13.318 14.267C13.5104 14.2802 13.6038 14.1842 13.6038 14.1842L13.5653 13.9803C13.4818 13.887 13.3767 13.8157 13.2592 13.7726C13.0688 13.7063 12.8127 13.6902 12.8127 13.6902L12.8128 13.6902ZM13.7089 13.2503C13.7089 13.2503 13.5448 13.3908 13.4999 13.5536C13.4549 13.7163 13.5291 13.9013 13.5291 13.9013L13.6671 14.1586C13.6671 14.1586 13.8582 14.0569 13.9395 13.9048C14.0208 13.7527 13.991 13.5474 13.991 13.5474C13.991 13.5474 13.8396 13.6038 13.8203 13.6287C13.8523 13.46 13.7089 13.2503 13.7089 13.2503ZM13.1813 13.1846C13.1813 13.1846 12.9947 13.2477 12.8134 13.2368C12.6407 13.2264 12.4971 13.0814 12.4971 13.0814C12.4971 13.0814 12.6402 12.9845 12.7109 12.9974C12.6332 12.969 12.5205 12.7743 12.5205 12.7743C12.5205 12.7743 12.6806 12.7259 12.8226 12.7795C12.9646 12.833 13.0884 12.9886 13.0884 12.9886L13.1813 13.1846ZM13.2455 12.2728C13.2455 12.2728 13.3389 12.4662 13.3168 12.5333C13.3457 12.4886 13.4553 12.4189 13.4553 12.4189C13.4553 12.4189 13.5216 12.7319 13.4582 12.9253C13.3949 13.1186 13.2019 13.1922 13.2019 13.1922L12.9891 12.7783C12.9891 12.7783 12.9575 12.6249 13.0238 12.5035C13.0902 12.3821 13.2455 12.2728 13.2455 12.2728V12.2728ZM12.0309 11.7611C12.0309 11.7611 12.2327 11.7399 12.4173 11.8164C12.5716 11.8804 12.6189 11.9969 12.6189 11.9969L12.6949 12.2006C12.6949 12.2006 12.4753 12.283 12.3017 12.22C12.1282 12.157 12.0007 11.9486 12.0007 11.9486C12.0007 11.9486 12.122 11.9026 12.1681 11.9199C12.1009 11.8901 12.0309 11.7611 12.0309 11.7611V11.7611L12.0309 11.7611ZM12.6655 11.3829C12.6655 11.3829 12.7541 11.4966 12.7567 11.6274C12.7803 11.5579 12.8909 11.481 12.8909 11.481C12.8909 11.481 13.0046 11.7561 12.9796 11.9515C12.9546 12.1468 12.7911 12.2624 12.7911 12.2624L12.5871 11.8752C12.5871 11.8752 12.5206 11.7165 12.5402 11.5934C12.5598 11.4703 12.6655 11.3828 12.6655 11.3828V11.3829ZM11.9667 10.6423C11.9667 10.6423 11.9301 10.8532 11.9924 10.9747C12.048 11.0831 12.0834 11.1069 12.0834 11.1069C11.9773 11.0369 11.817 11.0309 11.817 11.0309C11.817 11.0309 11.8741 11.2604 12.0104 11.3651C12.1468 11.4697 12.3571 11.4453 12.3571 11.4453C12.3571 11.4453 12.4953 11.2612 12.4857 11.0629C12.4761 10.8646 12.3186 10.652 12.3186 10.652C12.3186 10.652 12.2565 10.7809 12.251 10.8771C12.2108 10.7779 11.9666 10.6424 11.9666 10.6424L11.9667 10.6423ZM13.6148 14.1754L13.6204 14.2511C13.7462 14.2523 13.7649 14.2397 13.7971 14.2794C13.8282 14.3143 13.8785 14.3249 13.921 14.3054C13.9457 14.2939 13.965 14.2732 13.9745 14.2476C13.984 14.2221 13.9831 14.1938 13.9719 14.1689C13.9485 14.1176 13.9007 14.1064 13.8547 14.1155C13.8265 14.1211 13.8079 14.1436 13.784 14.156C13.7384 14.1796 13.6147 14.1754 13.6147 14.1754L13.6148 14.1754Z" fill="black"/>
<path d="M13.6041 14.1177L13.6653 14.1625C13.5996 14.2699 13.5791 14.2791 13.5957 14.3274C13.6021 14.3493 13.6013 14.3727 13.5935 14.394C13.5856 14.4154 13.5711 14.4337 13.5521 14.4463C13.5293 14.4612 13.5015 14.4665 13.4748 14.4611C13.4481 14.4557 13.4246 14.4399 13.4094 14.4172C13.3783 14.3701 13.3941 14.3238 13.4261 14.2896C13.4458 14.2685 13.4747 14.2647 13.4979 14.251C13.542 14.2248 13.604 14.1177 13.604 14.1177L13.6041 14.1177ZM13.1781 13.2188L13.1838 13.2945C13.3096 13.2956 13.3283 13.2831 13.3605 13.3227C13.3916 13.3576 13.4418 13.3682 13.4844 13.3487C13.5359 13.3249 13.5586 13.264 13.5353 13.2123C13.5118 13.1609 13.4641 13.1498 13.4181 13.1589C13.3899 13.1645 13.3713 13.187 13.3474 13.1993C13.3018 13.2229 13.1781 13.2188 13.1781 13.2188L13.1781 13.2188Z" fill="black"/>
<path d="M13.2037 13.2455L13.2572 13.2994C13.1757 13.3951 13.154 13.4011 13.1628 13.4514C13.1689 13.4978 13.1439 13.5427 13.1013 13.5621C13.0764 13.5733 13.0482 13.5742 13.0226 13.5647C12.9971 13.5551 12.9763 13.5359 12.9648 13.5112C12.9414 13.4598 12.9643 13.4165 13.0013 13.3876C13.024 13.37 13.0532 13.3707 13.0782 13.3607C13.1258 13.3417 13.2037 13.2455 13.2037 13.2455V13.2455ZM12.7549 12.323L12.7606 12.3987C12.8863 12.3999 12.905 12.3874 12.9373 12.427C12.9525 12.444 12.9727 12.4557 12.995 12.4604C13.0173 12.4651 13.0405 12.4625 13.0612 12.453C13.0859 12.4415 13.1052 12.4208 13.1147 12.3952C13.1242 12.3697 13.1233 12.3414 13.1121 12.3165C13.0886 12.2652 13.0409 12.254 12.9949 12.2631C12.9666 12.2687 12.9481 12.2912 12.9241 12.3036C12.8786 12.3272 12.7549 12.323 12.7549 12.323L12.7549 12.323Z" fill="black"/>
<path d="M12.7896 12.307L12.8431 12.3608C12.7616 12.4566 12.7399 12.4626 12.7487 12.5129C12.7547 12.5593 12.7298 12.6042 12.6872 12.6235C12.6623 12.6347 12.634 12.6357 12.6085 12.6261C12.583 12.6166 12.5622 12.5974 12.5507 12.5726C12.5273 12.5213 12.5501 12.4779 12.5871 12.4491C12.6098 12.4314 12.639 12.4321 12.6641 12.4221C12.7117 12.4032 12.7896 12.307 12.7896 12.307ZM12.3038 11.3772L12.3094 11.4529C12.4352 11.4541 12.4539 11.4416 12.4861 11.4812C12.5013 11.4982 12.5215 11.5099 12.5438 11.5146C12.5661 11.5193 12.5893 11.5167 12.61 11.5072C12.6347 11.4958 12.654 11.475 12.6635 11.4495C12.673 11.4239 12.6721 11.3956 12.6609 11.3707C12.6375 11.3194 12.5897 11.3082 12.5437 11.3173C12.5155 11.3229 12.4969 11.3454 12.473 11.3578C12.4274 11.3814 12.3037 11.3772 12.3037 11.3772H12.3038Z" fill="black"/>
<path d="M12.3386 11.3616L12.3921 11.4154C12.3106 11.5112 12.2888 11.5172 12.2977 11.5675C12.3037 11.6139 12.2787 11.6588 12.2362 11.6781C12.2113 11.6893 12.183 11.6902 12.1575 11.6807C12.132 11.6712 12.1112 11.652 12.0997 11.6272C12.0763 11.5759 12.0991 11.5325 12.1361 11.5037C12.1588 11.4861 12.188 11.4867 12.213 11.4767C12.2607 11.4578 12.3386 11.3616 12.3386 11.3616L12.3386 11.3616Z" fill="black"/>
<path d="M14.0397 15.0699L14.2548 15.1872L14.2026 15.4266L13.9875 15.3092L14.0397 15.0699ZM13.0982 12.9943C13.0531 13.013 12.9863 12.8168 12.9372 12.7093C12.8868 12.599 12.7845 12.4289 12.8136 12.4156C12.8454 12.4011 12.8874 12.4904 12.939 12.6033C12.9905 12.7162 13.1404 12.9767 13.0982 12.9943V12.9943ZM12.6352 11.9608C12.5902 11.9795 12.5409 11.851 12.4918 11.7435C12.4414 11.6332 12.3924 11.5553 12.4214 11.542C12.4533 11.5274 12.5004 11.6241 12.5416 11.7144C12.5815 11.8019 12.6775 11.9432 12.6352 11.9608L12.6352 11.9608ZM13.7063 14.3042C13.6709 14.3137 13.5164 13.9904 13.3916 13.7169C13.2667 13.4433 13.1737 13.222 13.2028 13.2088C13.2347 13.1943 13.3358 13.4526 13.4607 13.7262C13.5856 13.9998 13.7328 14.2971 13.7063 14.3042H13.7063Z" fill="#FFD200"/>
<path d="M13.8785 14.2678C13.9093 14.2678 13.9343 14.2428 13.9343 14.212C13.9343 14.1812 13.9093 14.1562 13.8785 14.1562C13.8477 14.1562 13.8228 14.1812 13.8228 14.212C13.8228 14.2428 13.8477 14.2678 13.8785 14.2678Z" fill="#FFD200"/>
<path d="M13.4949 14.4167C13.5257 14.4167 13.5506 14.3918 13.5506 14.361C13.5506 14.3301 13.5257 14.3052 13.4949 14.3052C13.4641 14.3052 13.4391 14.3301 13.4391 14.361C13.4391 14.3918 13.4641 14.4167 13.4949 14.4167Z" fill="#FFD200"/>
<path d="M13.4415 13.3103C13.4723 13.3103 13.4973 13.2853 13.4973 13.2545C13.4973 13.2237 13.4723 13.1987 13.4415 13.1987C13.4107 13.1987 13.3857 13.2237 13.3857 13.2545C13.3857 13.2853 13.4107 13.3103 13.4415 13.3103Z" fill="#FFD200"/>
<path d="M13.0579 13.5242C13.0887 13.5242 13.1136 13.4992 13.1136 13.4684C13.1136 13.4376 13.0887 13.4126 13.0579 13.4126C13.027 13.4126 13.0021 13.4376 13.0021 13.4684C13.0021 13.4992 13.027 13.5242 13.0579 13.5242Z" fill="#FFD200"/>
<path d="M13.0183 12.415C13.0491 12.415 13.0741 12.39 13.0741 12.3592C13.0741 12.3284 13.0491 12.3035 13.0183 12.3035C12.9875 12.3035 12.9625 12.3284 12.9625 12.3592C12.9625 12.39 12.9875 12.415 13.0183 12.415Z" fill="#FFD200"/>
<path d="M12.644 12.5859C12.6748 12.5859 12.6998 12.5609 12.6998 12.5301C12.6998 12.4993 12.6748 12.4744 12.644 12.4744C12.6132 12.4744 12.5883 12.4993 12.5883 12.5301C12.5883 12.5609 12.6132 12.5859 12.644 12.5859Z" fill="#FFD200"/>
<path d="M12.5676 11.4695C12.5984 11.4695 12.6234 11.4445 12.6234 11.4137C12.6234 11.3829 12.5984 11.3579 12.5676 11.3579C12.5368 11.3579 12.5118 11.3829 12.5118 11.4137C12.5118 11.4445 12.5368 11.4695 12.5676 11.4695Z" fill="#FFD200"/>
<path d="M12.193 11.6404C12.2238 11.6404 12.2488 11.6154 12.2488 11.5846C12.2488 11.5538 12.2238 11.5288 12.193 11.5288C12.1622 11.5288 12.1372 11.5538 12.1372 11.5846C12.1372 11.6154 12.1622 11.6404 12.193 11.6404Z" fill="#FFD200"/>
<path d="M12.0291 10.7705C12.0291 10.7705 12.0236 10.9246 12.0746 11.012C12.1256 11.0995 12.2395 11.1344 12.2395 11.1344C12.2395 11.1344 12.2449 10.9803 12.1939 10.8929C12.143 10.8055 12.0291 10.7705 12.0291 10.7705ZM11.9225 11.1192C11.9225 11.1192 12.0564 11.127 12.1337 11.1863C12.211 11.2455 12.2409 11.369 12.2409 11.369C12.1814 11.3721 12.1227 11.3543 12.0749 11.3187C11.9976 11.2595 11.9225 11.1192 11.9225 11.1192ZM12.3426 10.808C12.3153 10.8753 12.3019 10.9475 12.3033 11.0201C12.3084 11.1302 12.3726 11.2542 12.3726 11.2542C12.3726 11.2542 12.4307 11.1221 12.4255 11.012C12.4204 10.9019 12.3582 10.8391 12.3426 10.808ZM12.1173 11.8002C12.1619 11.8591 12.2189 11.9075 12.2842 11.942C12.3854 11.9921 12.5362 11.9939 12.5362 11.9939C12.4877 11.9335 12.4277 11.8833 12.3597 11.8462C12.2585 11.7962 12.1173 11.8002 12.1173 11.8002V11.8002ZM12.1498 12.0134C12.1498 12.0134 12.1981 12.108 12.2864 12.1486C12.3748 12.1891 12.5556 12.1858 12.5556 12.1858C12.5124 12.1325 12.4587 12.0886 12.3979 12.0568C12.3095 12.0162 12.1498 12.0134 12.1498 12.0134ZM12.6585 11.5087C12.6264 11.5652 12.6097 11.6292 12.6104 11.6942C12.6156 11.7915 12.6794 11.8978 12.6794 11.8978C12.6794 11.8978 12.7243 11.7759 12.7191 11.6787C12.7146 11.6176 12.6937 11.5589 12.6585 11.5087H12.6585ZM12.8552 11.6335C12.8552 11.6335 12.7639 11.7561 12.7508 11.8822C12.7376 12.0083 12.8027 12.1378 12.8027 12.1378C12.8027 12.1378 12.9131 12.027 12.9262 11.9009C12.9393 11.7749 12.8552 11.6335 12.8552 11.6335V11.6335ZM12.6033 12.7978C12.6134 12.8319 12.6301 12.8637 12.6525 12.8913C12.6837 12.9276 12.7183 12.9608 12.756 12.9904C12.8022 12.9781 12.8508 12.9769 12.8976 12.9871C12.976 13.0041 13.0804 13.074 13.0804 13.074C13.0804 13.074 12.9681 12.9064 12.8515 12.8412C12.7751 12.8019 12.6886 12.7868 12.6034 12.7978L12.6033 12.7978ZM12.5918 13.0859C12.5918 13.0859 12.7372 13.0238 12.8569 13.0398C12.9766 13.0559 13.0846 13.1505 13.0846 13.1505C13.0846 13.1505 12.9228 13.2065 12.803 13.1905C12.7241 13.1763 12.6509 13.1401 12.5917 13.0859H12.5918ZM13.2063 12.41C13.2063 12.41 13.0777 12.5462 13.0669 12.6644C13.0561 12.7826 13.1712 12.8928 13.1712 12.8928C13.1681 12.8504 13.1729 12.8077 13.1853 12.7671C13.2017 12.7303 13.2225 12.6956 13.2472 12.6638C13.2574 12.6283 13.2611 12.5911 13.2582 12.5542C13.2484 12.5038 13.2309 12.4551 13.2063 12.41ZM13.3908 12.5677C13.3908 12.5677 13.2696 12.6904 13.2376 12.8217C13.2055 12.953 13.2626 13.093 13.2626 13.093C13.2626 13.093 13.3728 13.006 13.4048 12.8748C13.4369 12.7435 13.3908 12.5677 13.3908 12.5677ZM13.6943 13.3592C13.7259 13.4263 13.749 13.497 13.7631 13.5697C13.777 13.6655 13.7641 13.6987 13.7641 13.6987C13.7641 13.6987 13.7073 13.7545 13.6819 13.7873C13.6492 13.8295 13.6444 13.9067 13.6444 13.9067C13.6444 13.9067 13.5304 13.7372 13.548 13.6134C13.5656 13.4895 13.6943 13.3592 13.6943 13.3592V13.3592ZM13.9344 13.6244C13.9344 13.6244 13.7885 13.7208 13.7306 13.8197C13.6961 13.8804 13.6861 13.952 13.7027 14.0198C13.736 14.0151 13.7679 14.0029 13.7959 13.9842C13.8239 13.9655 13.8474 13.9408 13.8646 13.9118C13.9225 13.813 13.9344 13.6244 13.9344 13.6244L13.9344 13.6244ZM12.9755 14.0315C12.9755 14.0315 13.1858 14.0258 13.3144 14.0574C13.4429 14.089 13.4897 14.1579 13.4897 14.1579C13.4897 14.1579 13.3452 14.2256 13.2166 14.194C13.0881 14.1624 12.9755 14.0315 12.9755 14.0315L12.9755 14.0315ZM12.94 13.782C12.94 13.782 13.0349 13.9291 13.1575 13.9824C13.3266 14.056 13.5223 14.0203 13.5223 14.0203C13.5223 14.0203 13.416 13.89 13.2697 13.8325C13.1234 13.7749 12.94 13.782 12.94 13.782Z" fill="#007A50"/>
<path d="M20.1405 10.8938L20.1679 10.9519C20.1406 10.9621 20.1178 10.9815 20.1032 11.0066C20.0831 11.0462 20.1164 11.102 20.1164 11.102C20.1164 11.102 19.8851 11.0818 19.849 11.1053C19.8163 11.1265 19.8629 11.2867 19.8413 11.422C19.8113 11.6105 19.737 11.5947 19.734 11.6312C19.731 11.6667 19.7624 11.7222 19.7624 11.7222C19.7624 11.7222 19.7191 11.7358 19.7098 11.7539C19.695 11.7831 19.7202 11.8369 19.7022 11.8723L19.3548 12.5538C19.3411 12.5807 19.3043 12.591 19.2858 12.6272C19.2761 12.6536 19.2749 12.6823 19.2825 12.7094C19.2825 12.7094 19.2174 12.7133 19.1949 12.7576C19.1806 12.7927 19.1772 12.8312 19.185 12.8683C19.172 12.8706 19.1597 12.8758 19.1491 12.8836C19.1384 12.8914 19.1297 12.9015 19.1236 12.9132C19.102 12.9556 19.1386 12.9778 19.1291 12.9965L18.7467 13.747C18.7118 13.8155 18.5897 13.8292 18.5188 13.9684C18.499 14.0058 18.4912 14.0483 18.4965 14.0903C18.5018 14.1323 18.5199 14.1716 18.5484 14.2029C18.5484 14.2029 18.4462 14.2121 18.4191 14.2653C18.3914 14.3196 18.4133 14.402 18.487 14.4395C18.5607 14.4771 18.6413 14.4467 18.669 14.3924C18.6961 14.3392 18.6415 14.2511 18.6415 14.2511C18.6837 14.2553 18.7261 14.2466 18.7631 14.226C18.8001 14.2054 18.83 14.174 18.8486 14.136C18.9195 13.9969 18.8597 13.8911 18.8946 13.8226L19.277 13.0721C19.2866 13.0534 19.3256 13.0696 19.3472 13.0272C19.353 13.0154 19.3561 13.0025 19.3561 12.9894C19.3561 12.9762 19.353 12.9633 19.3472 12.9516C19.3819 12.936 19.4113 12.9104 19.4316 12.8781C19.4542 12.8338 19.4195 12.7784 19.4195 12.7784C19.4459 12.769 19.4685 12.7513 19.4841 12.7281C19.5026 12.6918 19.489 12.6564 19.5027 12.6294L19.8501 11.9479C19.8681 11.9125 19.9262 11.9004 19.941 11.8712C19.9503 11.8531 19.9356 11.8098 19.9356 11.8098C19.9356 11.8098 19.9995 11.8035 20.0265 11.7802C20.0543 11.7563 19.9979 11.705 20.1328 11.5699C20.2296 11.4729 20.3857 11.4159 20.3837 11.377C20.3815 11.334 20.2292 11.159 20.2292 11.159C20.2292 11.159 20.2934 11.1536 20.3136 11.1141C20.3254 11.0871 20.3278 11.057 20.3202 11.0286L20.3837 11.0176V10.7163L20.1405 10.8938ZM18.04 15.0905C18.0349 15.1008 18.0322 15.1123 18.0322 15.1239C18.0322 15.1355 18.0349 15.1469 18.04 15.1573C18.04 15.1573 17.9633 15.1333 17.937 15.1463C17.9123 15.1586 17.937 15.52 17.937 15.52C17.937 15.52 18.243 15.327 18.2383 15.2997C18.2334 15.2708 18.1693 15.2219 18.1693 15.2219C18.1806 15.2202 18.1914 15.2158 18.2007 15.2092C18.2101 15.2025 18.2177 15.1937 18.223 15.1836C18.2331 15.1638 18.2344 15.1072 18.1649 15.0718C18.1442 15.0603 18.1206 15.055 18.097 15.0565C18.0736 15.058 18.0524 15.0706 18.04 15.0905Z" fill="black"/>
<path d="M20.1958 10.9057L20.3405 10.9792L20.3383 10.8049L20.1958 10.9057ZM20.14 11.0109C20.1145 11.0494 20.125 11.1013 20.1635 11.1268C20.202 11.1523 20.2539 11.1418 20.2794 11.1033C20.3049 11.0648 20.2943 11.0129 20.2558 10.9874C20.2531 10.9856 20.2503 10.984 20.2474 10.9825C20.2328 10.975 20.2165 10.9716 20.2002 10.9726C20.1748 10.9738 20.1518 10.9884 20.14 11.011L20.14 11.0109ZM19.8913 11.1435C19.8761 11.1534 19.8968 11.2836 19.8924 11.3944C19.8882 11.4989 19.8548 11.5283 19.8365 11.5643C19.8196 11.5974 19.7587 11.6366 19.7587 11.6366L19.8091 11.687C19.8091 11.687 19.8419 11.6359 19.8935 11.5346C19.9543 11.4152 19.9523 11.1989 19.9702 11.1873C20.0169 11.1709 20.0644 11.157 20.1126 11.1457C20.1126 11.1457 19.9961 11.1394 19.9318 11.1402C19.9182 11.1394 19.9046 11.1405 19.8913 11.1436V11.1435ZM19.9045 11.7451C19.9268 11.6897 19.9521 11.6356 19.9802 11.5829C20.051 11.4438 20.2023 11.3429 20.2058 11.3177C20.2095 11.2918 20.1532 11.1698 20.1532 11.1698C20.1532 11.1698 20.0198 11.1954 20.0009 11.2137C19.9827 11.2313 19.9907 11.412 19.9198 11.5511C19.8935 11.6053 19.8642 11.658 19.8322 11.7089L19.9045 11.7451ZM20.2453 11.3276C20.2464 11.3488 20.0706 11.4745 20.0097 11.5938C19.9581 11.6951 19.9363 11.7516 19.9363 11.7516L20.0064 11.7626C20.0064 11.7626 20.0016 11.6905 20.0185 11.6574C20.0367 11.6215 20.0416 11.5776 20.1237 11.5128C20.2107 11.4441 20.3284 11.3841 20.3275 11.3659C20.3266 11.3492 20.196 11.1873 20.196 11.1873C20.2148 11.2332 20.2313 11.28 20.2453 11.3276ZM19.7303 12.1088C19.836 11.9015 19.8682 11.8873 19.8815 11.8612C19.8959 11.8331 19.8924 11.7953 19.8454 11.7713C19.8314 11.7636 19.8153 11.7601 19.7994 11.7615C19.7893 11.7627 19.7797 11.7665 19.7714 11.7724C19.7632 11.7783 19.7566 11.7863 19.7522 11.7955C19.7389 11.8216 19.7461 11.8566 19.6404 12.0639L19.4005 12.534C19.3972 12.5397 19.3951 12.5459 19.3942 12.5524C19.3933 12.5589 19.3938 12.5655 19.3955 12.5718C19.3971 12.5782 19.4001 12.5841 19.4041 12.5893C19.408 12.5945 19.413 12.5989 19.4187 12.6022C19.4199 12.6029 19.4211 12.6035 19.4224 12.6041C19.4335 12.6103 19.4466 12.6118 19.4588 12.6084C19.471 12.6049 19.4814 12.5968 19.4876 12.5857C19.4886 12.5839 19.4895 12.5819 19.4903 12.58L19.7303 12.1088ZM19.3063 12.6479C19.2932 12.6736 19.3156 12.7114 19.3567 12.7323C19.3978 12.7533 19.4423 12.7493 19.4553 12.7236C19.4684 12.6978 19.4449 12.6601 19.4038 12.6392C19.3857 12.6294 19.3652 12.6249 19.3447 12.626C19.3289 12.6261 19.3144 12.6345 19.3063 12.6479ZM19.2175 12.7816C19.2005 12.8148 19.227 12.8626 19.2767 12.8879C19.3264 12.9133 19.3803 12.9069 19.3972 12.8737C19.4141 12.8404 19.3877 12.7927 19.338 12.7673C19.3211 12.7584 19.3024 12.7532 19.2832 12.752C19.2574 12.7482 19.2318 12.7598 19.2175 12.7816ZM19.1616 12.9307C19.1486 12.9563 19.171 12.9941 19.212 13.015C19.2531 13.0359 19.2975 13.0319 19.3107 13.0062C19.3238 12.9806 19.3013 12.9428 19.2603 12.9219C19.2417 12.9121 19.2209 12.9075 19.2 12.9087C19.1922 12.9088 19.1847 12.9108 19.1779 12.9147C19.1712 12.9185 19.1656 12.924 19.1616 12.9307ZM19.1255 13.0731L18.765 13.782C18.735 13.8409 18.6085 13.8777 18.559 13.9749C18.5091 14.0726 18.5443 14.1642 18.6094 14.1973C18.6745 14.2304 18.77 14.2063 18.8198 14.1085C18.8693 14.0114 18.8248 13.887 18.8548 13.828L19.2153 13.1191C19.2221 13.108 19.2243 13.0946 19.2212 13.0819C19.2182 13.0692 19.2102 13.0583 19.1991 13.0515C19.1976 13.0506 19.1961 13.0497 19.1945 13.049C19.1851 13.044 19.1744 13.0421 19.1638 13.0435C19.1472 13.0469 19.133 13.0579 19.1255 13.0731V13.0731ZM18.4515 14.2904C18.4315 14.3296 18.4543 14.3818 18.5029 14.4065C18.5515 14.4313 18.6079 14.4194 18.6279 14.3802C18.6478 14.3411 18.6239 14.2888 18.5753 14.2641C18.5584 14.2552 18.5396 14.2506 18.5205 14.2509C18.492 14.2504 18.4655 14.2655 18.4515 14.2904ZM18.0965 15.0914C18.0902 15.0908 18.0838 15.0919 18.078 15.0946C18.0723 15.0973 18.0673 15.1015 18.0637 15.1067C18.0535 15.1267 18.0746 15.1584 18.1108 15.1768C18.147 15.1953 18.1849 15.1936 18.1952 15.1735C18.2054 15.1535 18.1842 15.1219 18.1481 15.1034C18.1322 15.0951 18.1144 15.091 18.0965 15.0914ZM17.9716 15.1899V15.4485L18.182 15.2973C18.1596 15.2624 18.1283 15.2341 18.0913 15.2153C18.0543 15.1964 18.0131 15.1877 17.9716 15.1899ZM18.1048 9.43077C18.1048 9.28895 18.2911 9.14917 18.2911 9.14917H13.7483C13.7483 9.14917 13.9346 9.28893 13.9346 9.43077V12.8122C13.9329 12.8865 13.9582 12.9589 14.0058 13.016C14.0495 13.0771 14.1426 13.1614 14.2392 13.2242C14.5375 13.4179 15.0363 13.6223 15.4138 13.794C15.7283 13.937 15.8562 13.9947 16.0197 14.1972C16.1832 13.9947 16.3122 13.937 16.6267 13.794C17.0041 13.6223 17.5029 13.4179 17.8013 13.2242C17.8979 13.1614 17.991 13.0771 18.0347 13.016C18.0819 12.9588 18.1068 12.8864 18.1048 12.8122V9.43077Z" fill="#FFD200"/>
<path d="M14.0422 11.3439V9.43079C14.0432 9.36834 14.024 9.30721 13.9874 9.25659H18.0525C18.0159 9.30722 17.9967 9.36833 17.9977 9.43079L17.9989 11.3439L16.0206 11.9432L14.0422 11.3439H14.0422Z" fill="#CC092F"/>
<path d="M17.9989 11.3441L16.7739 11.321H15.2672L14.0422 11.3441V12.8123C14.0422 12.8861 14.1188 13.059 14.5605 13.2791C15.2906 13.6429 15.8518 13.8128 16.02 14.0198C16.1882 13.8128 16.7494 13.6429 17.4795 13.2791C17.9211 13.059 17.9977 12.8861 17.9977 12.8123L17.9989 11.3441Z" fill="#0046AE"/>
<path d="M16.744 11.2675C16.744 11.2675 17.4507 11.0893 17.4507 10.3339C17.4507 9.74399 16.7422 9.45132 16.722 9.31055C16.6528 9.55414 16.9587 9.89058 16.9587 10.289C16.9587 10.8045 16.5785 10.8292 16.5785 10.8292C16.4895 10.8292 16.4535 10.8927 16.4185 10.8927C16.3437 10.8849 16.3084 10.7897 16.2344 10.7897C16.1649 10.7897 16.1116 10.8971 16.0197 10.8971C15.9278 10.8971 15.8755 10.7897 15.806 10.7897C15.7321 10.7897 15.6968 10.8849 15.622 10.8927C15.587 10.8927 15.5509 10.8292 15.4619 10.8292C15.4619 10.8292 15.0818 10.8045 15.0818 10.289C15.0818 9.89058 15.3877 9.5541 15.3184 9.31055C15.2984 9.45132 14.5898 9.74396 14.5898 10.3339C14.5898 11.0893 15.2966 11.2675 15.2966 11.2675L15.0949 11.6345C15.0949 11.6345 15.387 11.6491 15.542 11.7814C15.7289 11.9408 15.7107 12.2786 15.7107 12.5243C15.7107 12.7179 15.6862 12.9222 15.5869 13.0064C15.4535 13.1194 15.3634 13.1278 15.3634 13.2606C15.3634 13.3713 15.4485 13.3935 15.5869 13.4666C15.7643 13.5602 15.756 13.6857 16.0197 13.6857C16.2834 13.6857 16.2762 13.5602 16.4536 13.4666C16.592 13.3935 16.6771 13.3713 16.6771 13.2606C16.6771 13.1278 16.5869 13.1194 16.4536 13.0064C16.3543 12.9221 16.3298 12.7178 16.3298 12.5243C16.3298 12.2786 16.3116 11.9408 16.4985 11.7814C16.6536 11.6492 16.9456 11.6345 16.9456 11.6345L16.744 11.2675ZM16.0196 9.36299L15.8969 9.71145L15.5627 9.55255L15.7216 9.88677L15.3731 10.0106L15.7216 10.1344L15.5627 10.4675L15.8969 10.3086L16.0196 10.657L16.1434 10.3086L16.4776 10.4675L16.3188 10.1344L16.6672 10.0106L16.3188 9.88677L16.4776 9.55255L16.1434 9.71145L16.0196 9.36299ZM15.2669 11.3212C15.2669 11.3212 14.8305 11.2145 14.6675 10.999C14.4861 11.1576 14.2727 11.2753 14.0419 11.3442C14.0419 11.3442 14.3973 11.5047 14.6675 11.7091C14.792 11.5307 15.2669 11.3212 15.2669 11.3212Z" fill="black"/>
<path d="M16.7737 11.3212C16.7737 11.3212 17.2486 11.5306 17.3731 11.7091C17.6433 11.5047 17.9987 11.3442 17.9987 11.3442C17.7679 11.2753 17.5545 11.1576 17.3731 10.999C17.2101 11.2145 16.7737 11.3212 16.7737 11.3212ZM15.4459 11.7856L15.276 11.9554L15.4459 12.1253L15.6157 11.9554L15.4459 11.7856ZM16.5952 11.7856L16.4254 11.9554L16.5952 12.1253L16.7651 11.9554L16.5952 11.7856ZM15.4031 12.7772C15.4051 12.8868 15.3982 12.9964 15.3823 13.1049C15.3823 13.1049 15.6217 13.0344 15.6694 12.7915C15.6918 12.6776 15.7167 12.2582 15.6015 12.1867L15.2892 12.1253C15.3648 12.3343 15.4033 12.555 15.4031 12.7772H15.4031ZM16.4396 12.1867C16.3244 12.2582 16.3493 12.6776 16.3717 12.7915C16.4193 13.0344 16.6588 13.1049 16.6588 13.1049C16.6429 12.9964 16.636 12.8868 16.6379 12.7773C16.6378 12.555 16.6763 12.3344 16.7519 12.1253L16.4396 12.1867ZM14.6669 12.1988C14.5601 12.2245 14.4944 12.3319 14.52 12.4386C14.5243 12.4563 14.5309 12.4733 14.5398 12.4892C14.5239 12.4838 14.5073 12.4805 14.4905 12.4793C14.4836 12.4789 14.4766 12.4789 14.4697 12.4793C14.4422 12.4803 14.4151 12.4869 14.3903 12.4988C14.3654 12.5107 14.3432 12.5275 14.3252 12.5483C14.3071 12.5691 14.2935 12.5934 14.2852 12.6197C14.2769 12.6459 14.2741 12.6736 14.277 12.701C14.2798 12.7284 14.2883 12.7549 14.3018 12.7789C14.3154 12.8029 14.3337 12.8239 14.3557 12.8405C14.3776 12.8571 14.4028 12.869 14.4296 12.8755C14.4563 12.882 14.4842 12.8829 14.5113 12.8782C14.5015 12.8913 14.4935 12.9057 14.4872 12.9209C14.4671 12.9703 14.4674 13.0257 14.4881 13.075C14.5088 13.1242 14.5482 13.1631 14.5976 13.1833C14.6471 13.2035 14.7025 13.2032 14.7517 13.1824C14.8009 13.1617 14.8399 13.1224 14.8601 13.0729L14.8608 13.071C14.8668 13.0559 14.8709 13.04 14.8729 13.0239C14.8827 13.0373 14.8941 13.0495 14.9069 13.06C14.991 13.1325 15.1179 13.1231 15.1904 13.039C15.2629 12.9548 15.2535 12.8279 15.1693 12.7554C15.1556 12.7435 15.1403 12.7336 15.1238 12.7258C15.1396 12.7208 15.1547 12.7138 15.1687 12.705C15.2139 12.6765 15.246 12.6311 15.2579 12.579C15.2698 12.5268 15.2606 12.4721 15.2323 12.4267C15.1931 12.3643 15.1228 12.3285 15.0493 12.3336C15.0158 12.3359 14.9834 12.3464 14.955 12.3643C14.9411 12.3729 14.9282 12.3832 14.9167 12.395C14.9165 12.3412 14.8949 12.2898 14.8567 12.2519C14.8185 12.2141 14.7669 12.193 14.7131 12.1932C14.6976 12.1933 14.682 12.1952 14.6669 12.1988V12.1988ZM16.8034 12.7839C16.8251 12.9891 16.9919 13.161 17.1978 13.2101C17.1621 13.1526 17.1396 13.0878 17.1321 13.0206C17.1063 12.7772 17.2945 12.58 17.5517 12.58C17.5916 12.5801 17.6313 12.5849 17.67 12.5943C17.5742 12.4391 17.4054 12.344 17.223 12.3423C16.9658 12.3423 16.7775 12.5405 16.8034 12.7838V12.7839Z" fill="black"/>
<path d="M14.9789 10.2888C14.9789 10.6768 15.1858 10.9056 15.4621 10.9056C15.5148 10.9056 15.5724 10.9769 15.6221 10.9769C15.703 10.9769 15.7569 10.887 15.8062 10.887C15.8688 10.887 15.9111 10.9856 16.0198 10.9856C16.1286 10.9856 16.1719 10.887 16.2346 10.887C16.2839 10.887 16.3377 10.9769 16.4187 10.9769C16.4683 10.9769 16.5259 10.9056 16.5786 10.9056C16.8549 10.9056 17.0619 10.6768 17.0619 10.2888C17.0619 9.97233 16.7961 9.58651 16.8252 9.52393C16.8252 9.52393 17.3434 9.89568 17.3434 10.3337C17.3434 11.0392 16.628 11.2135 16.628 11.2135L16.789 11.5762C16.789 11.5762 16.5672 11.6094 16.4318 11.7186C16.2512 11.8643 16.2488 12.2578 16.2488 12.524C16.2488 12.8375 16.2605 12.9703 16.3737 13.0554C16.4932 13.1451 16.583 13.1645 16.583 13.2559C16.583 13.3356 16.49 13.3682 16.3693 13.4214C16.2321 13.4819 16.2184 13.5868 16.0198 13.5868C15.8212 13.5868 15.8086 13.4819 15.6714 13.4214C15.5507 13.3682 15.4577 13.3356 15.4577 13.2559C15.4577 13.1645 15.5475 13.1451 15.667 13.0554C15.7802 12.9703 15.7919 12.8375 15.7919 12.524C15.7919 12.2578 15.7895 11.8643 15.6089 11.7186C15.4735 11.6094 15.2517 11.5762 15.2517 11.5762L15.4127 11.2135C15.4127 11.2135 14.6973 11.0392 14.6973 10.3337C14.6973 9.89568 15.2155 9.52393 15.2155 9.52393C15.2446 9.58651 14.9789 9.97233 14.9789 10.2888ZM15.7492 13.2023C15.6086 13.2023 15.5191 13.232 15.5191 13.2746C15.5191 13.3173 15.6086 13.3459 15.7492 13.3459C15.7866 13.3459 15.8291 13.3241 15.8291 13.2746C15.8287 13.2549 15.8204 13.2362 15.8062 13.2226C15.7919 13.209 15.7728 13.2017 15.7532 13.2021C15.7518 13.2021 15.7505 13.2022 15.7492 13.2023ZM16.2915 13.2023C16.2818 13.2016 16.272 13.2027 16.2627 13.2057C16.2535 13.2088 16.2449 13.2136 16.2375 13.2199C16.2301 13.2263 16.224 13.234 16.2196 13.2427C16.2151 13.2514 16.2125 13.2609 16.2117 13.2706C16.2116 13.272 16.2116 13.2733 16.2115 13.2746C16.2115 13.3241 16.2541 13.3459 16.2915 13.3459C16.4321 13.3459 16.5216 13.3173 16.5216 13.2746C16.5216 13.2319 16.4321 13.2023 16.2915 13.2023ZM16.021 9.59734L16.0999 9.81981L16.3124 9.7179L16.2116 9.93155L16.433 10.0105L16.2116 10.0894L16.3124 10.3019L16.0999 10.2011L16.0199 10.4224L15.941 10.2011L15.7284 10.3019L15.8292 10.0894L15.6079 10.0105L15.8292 9.93155L15.7284 9.7179L15.941 9.81981L16.021 9.59734ZM14.25 11.3503C14.25 11.3503 14.5199 11.4847 14.6554 11.6045L14.6631 11.611L14.6675 11.6056C14.7956 11.4585 15.0334 11.3338 15.0334 11.3338C15.0334 11.3338 14.8049 11.2708 14.6609 11.1059C14.5087 11.2611 14.25 11.3503 14.25 11.3503ZM17.7904 11.3506C17.7904 11.3506 17.5205 11.485 17.3849 11.6048L17.3773 11.6114L17.3729 11.6059C17.2448 11.4589 17.0069 11.3342 17.0069 11.3342C17.0069 11.3342 17.2354 11.2711 17.3794 11.1063C17.5317 11.2614 17.7904 11.3506 17.7904 11.3506ZM15.4457 11.8665L15.5344 11.9552L15.4457 12.0451L15.3558 11.9552L15.4457 11.8665ZM16.595 11.8665L16.6849 11.9552L16.595 12.0451L16.5063 11.9552L16.595 11.8665ZM15.5662 12.2543C15.6282 12.3399 15.6177 12.4783 15.6177 12.6707C15.6195 12.7244 15.607 12.7776 15.5814 12.8248C15.5558 12.872 15.518 12.9115 15.472 12.9392C15.472 12.4727 15.4239 12.3605 15.3986 12.2193L15.5662 12.2543ZM16.6421 12.2193C16.6167 12.3606 16.5687 12.4727 16.5687 12.9391C16.5227 12.9115 16.4849 12.872 16.4593 12.8248C16.4337 12.7776 16.4211 12.7244 16.423 12.6707C16.423 12.4782 16.4124 12.3399 16.4745 12.2543L16.6421 12.2193ZM14.877 12.3958C14.881 12.4126 14.8821 12.4301 14.8803 12.4473C14.8789 12.4608 14.8755 12.4741 14.8704 12.4867C14.7826 12.4556 14.6847 12.4807 14.6228 12.5503C14.6118 12.5407 14.6023 12.5296 14.5943 12.5174C14.5849 12.5033 14.5779 12.4878 14.5735 12.4714C14.5635 12.4312 14.57 12.3886 14.5913 12.3531C14.6127 12.3175 14.6474 12.292 14.6876 12.2819C14.7278 12.272 14.7703 12.2784 14.8058 12.2997C14.8414 12.3211 14.8669 12.3556 14.877 12.3958ZM15.1106 12.6881C15.0958 12.6971 15.0796 12.7036 15.0626 12.7071C15.0493 12.7099 15.0357 12.7109 15.0221 12.71C15.0245 12.6169 14.9704 12.5315 14.8851 12.4941C14.8908 12.4807 14.8984 12.4682 14.9076 12.4569C14.9181 12.4435 14.9307 12.432 14.9449 12.4228C14.9801 12.4009 15.0225 12.3938 15.063 12.4031C15.1034 12.4124 15.1384 12.4374 15.1604 12.4726C15.1823 12.5078 15.1894 12.5502 15.1801 12.5907C15.1708 12.6311 15.1458 12.6661 15.1106 12.6881V12.6881ZM14.9048 13.0006C14.8916 12.9893 14.8805 12.9759 14.8719 12.9609C14.8651 12.9491 14.86 12.9364 14.8566 12.9232C14.946 12.8967 15.0104 12.8189 15.0196 12.7262C15.0341 12.7275 15.0484 12.7308 15.062 12.7361C15.0779 12.7419 15.0927 12.7504 15.1059 12.761C15.1376 12.7878 15.1573 12.826 15.1608 12.8674C15.1643 12.9087 15.1513 12.9497 15.1245 12.9814C15.0979 13.013 15.0598 13.0327 15.0186 13.0363C14.9775 13.0399 14.9365 13.0271 14.9048 13.0006ZM14.544 12.9014C14.5506 12.8854 14.56 12.8707 14.5716 12.8578C14.5807 12.8477 14.5912 12.8389 14.6027 12.8317C14.6555 12.9085 14.7494 12.9457 14.8405 12.9258C14.8437 12.94 14.8449 12.9546 14.8442 12.9692C14.8435 12.9861 14.8401 13.0028 14.8339 13.0186C14.8184 13.0571 14.7882 13.0877 14.75 13.1039C14.7118 13.1201 14.6687 13.1204 14.6303 13.1049C14.5919 13.0893 14.5612 13.0591 14.5451 13.021C14.5289 12.9828 14.5285 12.9398 14.544 12.9014V12.9014ZM14.5268 12.5276C14.5441 12.529 14.561 12.5333 14.5768 12.5404C14.5892 12.546 14.6008 12.5532 14.6113 12.562C14.5545 12.6359 14.5482 12.7367 14.5952 12.8172C14.5827 12.8246 14.5692 12.8303 14.5551 12.8341C14.5388 12.8387 14.5219 12.8406 14.5049 12.8396C14.4636 12.8367 14.4251 12.8174 14.3979 12.7861C14.3707 12.7548 14.3571 12.714 14.36 12.6726C14.363 12.6313 14.3822 12.5928 14.4134 12.5656C14.4447 12.5385 14.4855 12.5248 14.5268 12.5277V12.5276Z" fill="#FFD200"/>
<path d="M14.7927 12.8539C14.8762 12.8539 14.9439 12.7862 14.9439 12.7027C14.9439 12.6192 14.8762 12.5515 14.7927 12.5515C14.7092 12.5515 14.6415 12.6192 14.6415 12.7027C14.6415 12.7862 14.7092 12.8539 14.7927 12.8539Z" fill="#FFD200"/>
<path d="M17.4474 12.4989C17.1964 12.5474 17.0157 12.7691 17.042 13.0281C16.962 12.9618 16.9034 12.8726 16.893 12.7739C16.8726 12.5817 17.0122 12.4331 17.2228 12.4331C17.3023 12.4338 17.38 12.4566 17.4474 12.4989Z" fill="#FFD200"/>
<path d="M18.2023 9.18295H13.8371C13.895 9.24123 13.9685 9.3342 13.9685 9.43056V12.3671H13.9684V12.812H13.9685C13.9678 12.8469 13.9734 12.8815 13.985 12.9144C13.9963 12.9435 14.0119 12.9707 14.0314 12.9951L14.0322 12.9962C14.0748 13.0504 14.1242 13.0989 14.1793 13.1403C14.1918 13.1501 14.2044 13.1596 14.2173 13.1689C14.2301 13.178 14.2431 13.1869 14.2562 13.1954L14.2565 13.1956C14.4888 13.3465 14.8467 13.505 15.1719 13.6491L15.4265 13.7628L15.4266 13.7629V13.7629L15.4338 13.7661H15.4339C15.7316 13.9015 15.8643 13.9619 16.0197 14.1439C16.1755 13.9612 16.3078 13.9011 16.6082 13.7644L16.6082 13.7644L16.6116 13.7628L16.8662 13.6492C17.1914 13.5051 17.5493 13.3466 17.7816 13.1957L17.7818 13.1956C17.847 13.1532 17.9074 13.1038 17.9618 13.0483C17.9703 13.0394 17.9786 13.0303 17.9865 13.021C17.9936 13.0126 18.0002 13.0043 18.006 12.9962L18.0065 12.9957L18.0066 12.9955L18.0069 12.9951C18.0265 12.9706 18.0424 12.9433 18.054 12.9141C18.0658 12.8814 18.0716 12.8468 18.0709 12.812H18.0711V12.3671H18.0709V9.43056C18.0709 9.3342 18.1444 9.24125 18.2023 9.18295ZM18.1389 9.43056V12.3671H18.1388V12.812H18.1389C18.1395 12.855 18.1322 12.8977 18.1174 12.938C18.1036 12.9732 18.0846 13.0061 18.0611 13.0357L18.0612 13.0358C18.0539 13.0457 18.0463 13.0554 18.0383 13.0648C18.0294 13.0752 18.0202 13.0854 18.0107 13.0953C17.9526 13.1545 17.8883 13.2072 17.8188 13.2524L17.8186 13.2526C17.5811 13.4067 17.2209 13.5663 16.8936 13.7113L16.6397 13.8247L16.6363 13.8263H16.6362C16.3294 13.9658 16.2039 14.0229 16.0461 14.2183L16.0197 14.251L15.9933 14.2183C15.8362 14.0239 15.71 13.9664 15.4058 13.828L15.4058 13.828L15.3987 13.8248L15.3985 13.8246L15.3984 13.8246L15.3983 13.8247L15.1445 13.7112C14.8172 13.5662 14.4569 13.4066 14.2195 13.2525L14.2187 13.2519L14.2185 13.2518C14.2051 13.2431 14.1914 13.2337 14.1777 13.2239C14.164 13.214 14.1506 13.204 14.1376 13.1938C14.0774 13.1483 14.0234 13.0951 13.977 13.0355H13.977C13.9535 13.006 13.9347 12.973 13.9213 12.9378C13.9069 12.8975 13.8998 12.8549 13.9005 12.8121H13.9006V12.3672H13.9005V9.43056C13.9005 9.30554 13.7284 9.17642 13.7279 9.17605V9.11499H18.3114V9.17605C18.311 9.17642 18.1388 9.30554 18.1388 9.43056H18.1389ZM18.0361 9.2225L18.0362 9.22237H18.0523L18.1227 9.22235L18.0787 9.27748C18.0468 9.32205 18.0302 9.37578 18.0315 9.43058V12.3671H18.0314V12.812H18.0315C18.0315 12.8722 17.9894 12.9884 17.7911 13.1332L17.7911 13.1332C17.7541 13.1603 17.7113 13.1887 17.662 13.2181C17.6124 13.2476 17.5569 13.278 17.4951 13.3089L17.495 13.3088L17.4944 13.3091V13.3092C17.2294 13.4412 16.9848 13.5485 16.7735 13.6412C16.4107 13.8003 16.1479 13.9155 16.0461 14.0408L16.0456 14.0414L16.0455 14.0416L16.019 14.0724L15.9934 14.0409C15.8916 13.9156 15.6288 13.8003 15.2658 13.6411C15.0547 13.5485 14.8102 13.4413 14.5455 13.3094V13.3093L14.5451 13.3091L14.545 13.3092C14.3572 13.2156 14.2337 13.1298 14.1534 13.0561C14.1386 13.0425 14.1244 13.0284 14.1107 13.0137C14.0291 12.9261 14.0081 12.8554 14.008 12.8121H14.0079V12.812H14.008V12.3671H14.0079V9.43056C14.0092 9.37576 13.9926 9.32203 13.9607 9.27746L13.9167 9.2225H14.0627V9.22237H17.9767V9.2225H18.036H18.0361ZM17.9767 9.2902V9.29033H14.0627V9.2902H14.0458C14.0657 9.33432 14.0759 9.38217 14.0759 9.43056V12.3671H14.0758V12.812H14.0759V12.8121H14.0758C14.0758 12.8427 14.0932 12.8953 14.1604 12.9676C14.1719 12.98 14.1849 12.9929 14.1994 13.0062C14.2753 13.076 14.3936 13.1579 14.5754 13.2484V13.2485L14.5758 13.2487L14.5759 13.2486C14.8421 13.3813 15.084 13.4874 15.2929 13.579C15.6383 13.7304 15.8951 13.843 16.0197 13.969C16.1444 13.843 16.4013 13.7304 16.7465 13.579C16.9555 13.4874 17.1976 13.3812 17.4641 13.2484L17.4642 13.2485L17.4648 13.2482V13.248C17.5265 13.2173 17.5803 13.1879 17.6272 13.1599C17.6745 13.1317 17.7156 13.1045 17.7511 13.0785H17.7512C17.9264 12.9507 17.9636 12.858 17.9636 12.812H17.9637V12.3671H17.9636V9.43056C17.9635 9.38217 17.9738 9.33432 17.9936 9.2902H17.9767Z" fill="black"/>
</g>
<defs>
<clipPath id="clip0_439_714">
<rect width="32" height="24" fill="white"/>
</clipPath>
</defs>
</svg>
