<svg width="14" height="16" viewBox="0 0 14 16" fill="none" xmlns="http://www.w3.org/2000/svg">
<path d="M0.5 6.28947V13.5C0.5 14.0523 0.947715 14.5 1.5 14.5H12.5C13.0523 14.5 13.5 14.0523 13.5 13.5V6.28947M0.5 6.28947V3.86842C0.5 3.31614 0.947715 2.86842 1.5 2.86842H4.26316M0.5 6.28947H13.5M13.5 6.28947V3.86842C13.5 3.31614 13.0523 2.86842 12.5 2.86842H9.73684M4.26316 1.5V2.86842M4.26316 2.86842V4.23684M4.26316 2.86842H9.73684M9.73684 1.5V2.86842M9.73684 2.86842V4.23684" stroke="white" stroke-width="0.75" stroke-linecap="round" stroke-linejoin="round"/>
<path d="M7 9.29999H10.4667" stroke="white" stroke-width="0.75" stroke-linecap="round"/>
<path d="M3.53333 11.9L10.4667 11.9" stroke="white" stroke-width="0.75" stroke-linecap="round"/>
</svg>
