<svg width="20" height="24" viewBox="0 0 20 24" fill="none" xmlns="http://www.w3.org/2000/svg">
<mask id="path-1-inside-1_1698_18098" fill="white">
<path fill-rule="evenodd" clip-rule="evenodd" d="M10 24L2.92889 16.9705C1.53038 15.5802 0.577985 13.8089 0.192143 11.8805C-0.193699 9.95211 0.00434096 7.95329 0.761221 6.13679C1.5181 4.3203 2.79983 2.76771 4.44431 1.67537C6.0888 0.583034 8.02219 0 10 0C11.9778 0 13.9112 0.583034 15.5557 1.67537C17.2002 2.76771 18.4819 4.3203 19.2388 6.13679C19.9957 7.95329 20.1937 9.95211 19.8079 11.8805C19.422 13.8089 18.4696 15.5802 17.0711 16.9705L10 24ZM10 14.5C12.4853 14.5 14.5 12.4853 14.5 10C14.5 7.51472 12.4853 5.5 10 5.5C7.51472 5.5 5.5 7.51472 5.5 10C5.5 12.4853 7.51472 14.5 10 14.5Z"/>
</mask>
<path fill-rule="evenodd" clip-rule="evenodd" d="M10 24L2.92889 16.9705C1.53038 15.5802 0.577985 13.8089 0.192143 11.8805C-0.193699 9.95211 0.00434096 7.95329 0.761221 6.13679C1.5181 4.3203 2.79983 2.76771 4.44431 1.67537C6.0888 0.583034 8.02219 0 10 0C11.9778 0 13.9112 0.583034 15.5557 1.67537C17.2002 2.76771 18.4819 4.3203 19.2388 6.13679C19.9957 7.95329 20.1937 9.95211 19.8079 11.8805C19.422 13.8089 18.4696 15.5802 17.0711 16.9705L10 24ZM10 14.5C12.4853 14.5 14.5 12.4853 14.5 10C14.5 7.51472 12.4853 5.5 10 5.5C7.51472 5.5 5.5 7.51472 5.5 10C5.5 12.4853 7.51472 14.5 10 14.5Z" fill="#E50074"/>
<path d="M2.92889 16.9705L1.87136 18.0343L1.87137 18.0343L2.92889 16.9705ZM10 24L8.94248 25.0638L10 26.1151L11.0575 25.0638L10 24ZM0.192143 11.8805L1.66299 11.5862L0.192143 11.8805ZM0.761221 6.13679L-0.623393 5.55987H-0.623393L0.761221 6.13679ZM4.44431 1.67537L3.61436 0.425902V0.425902L4.44431 1.67537ZM15.5557 1.67537L14.7257 2.92484L15.5557 1.67537ZM19.2388 6.13679L20.6234 5.55987L19.2388 6.13679ZM19.8079 11.8805L18.337 11.5862V11.5862L19.8079 11.8805ZM17.0711 16.9705L18.1286 18.0343L18.1286 18.0343L17.0711 16.9705ZM1.87137 18.0343L8.94248 25.0638L11.0575 22.9362L3.98642 15.9067L1.87137 18.0343ZM-1.2787 12.1748C-0.834303 14.3958 0.262412 16.4348 1.87136 18.0343L3.98642 15.9067C2.79835 14.7256 1.99027 13.2219 1.66299 11.5862L-1.2787 12.1748ZM-0.623393 5.55987C-1.49493 7.65154 -1.72312 9.95368 -1.2787 12.1748L1.66299 11.5862C1.33572 9.95054 1.50361 8.25503 2.14583 6.71372L-0.623393 5.55987ZM3.61436 0.425902C1.72333 1.682 0.248109 3.46828 -0.623393 5.55987L2.14583 6.71372C2.78809 5.17232 3.87632 3.85342 5.27427 2.92484L3.61436 0.425902ZM10 -1.5C7.72749 -1.5 5.50529 -0.830133 3.61436 0.425902L5.27427 2.92484C6.67232 1.9962 8.3169 1.5 10 1.5V-1.5ZM16.3856 0.425902C14.4947 -0.830133 12.2725 -1.5 10 -1.5V1.5C11.6831 1.5 13.3277 1.9962 14.7257 2.92484L16.3856 0.425902ZM20.6234 5.55987C19.7519 3.46828 18.2767 1.682 16.3856 0.425902L14.7257 2.92484C16.1237 3.85342 17.2119 5.17232 17.8542 6.71372L20.6234 5.55987ZM21.2787 12.1748C21.7231 9.95368 21.4949 7.65154 20.6234 5.55987L17.8542 6.71372C18.4964 8.25504 18.6643 9.95054 18.337 11.5862L21.2787 12.1748ZM18.1286 18.0343C19.7376 16.4348 20.8343 14.3958 21.2787 12.1748L18.337 11.5862C18.0097 13.2219 17.2017 14.7256 16.0136 15.9067L18.1286 18.0343ZM11.0575 25.0638L18.1286 18.0343L16.0136 15.9067L8.94248 22.9362L11.0575 25.0638ZM13 10C13 11.6569 11.6569 13 10 13V16C13.3137 16 16 13.3137 16 10H13ZM10 7C11.6569 7 13 8.34315 13 10H16C16 6.68629 13.3137 4 10 4V7ZM7 10C7 8.34315 8.34315 7 10 7V4C6.68629 4 4 6.68629 4 10H7ZM10 13C8.34315 13 7 11.6569 7 10H4C4 13.3137 6.68629 16 10 16V13Z" fill="#E50074" mask="url(#path-1-inside-1_1698_18098)"/>
</svg>
